<svg width="293" height="35" viewBox="0 0 293 35" fill="none" xmlns="http://www.w3.org/2000/svg">
<g style="mix-blend-mode:multiply" opacity="0.5">
<rect x="188" y="2" width="100" height="30" fill="#496D78" fill-opacity="0.5"/>
</g>
<path d="M191.896 29V7.18182H196.509V16.8018H196.797L204.648 7.18182H210.178L202.081 16.951L210.273 29H204.755L198.778 20.0298L196.509 22.7997V29H191.896ZM221.963 22.0327V12.6364H226.501V29H222.144V26.0277H221.974C221.604 26.9865 220.99 27.7571 220.131 28.3395C219.278 28.9219 218.238 29.2131 217.009 29.2131C215.915 29.2131 214.953 28.9645 214.122 28.4673C213.291 27.9702 212.641 27.2635 212.172 26.3473C211.711 25.4311 211.476 24.3338 211.469 23.0554V12.6364H216.008V22.2457C216.015 23.2116 216.274 23.9751 216.785 24.5362C217.297 25.0973 217.982 25.3778 218.841 25.3778C219.388 25.3778 219.9 25.2536 220.376 25.005C220.851 24.7493 221.235 24.3729 221.526 23.8757C221.824 23.3786 221.97 22.7642 221.963 22.0327ZM230.131 29V12.6364H234.457V15.5234H234.648C234.989 14.5646 235.558 13.8082 236.353 13.2543C237.148 12.7003 238.1 12.4233 239.208 12.4233C240.33 12.4233 241.286 12.7038 242.074 13.2649C242.862 13.8189 243.388 14.5717 243.651 15.5234H243.821C244.155 14.5859 244.759 13.8366 245.632 13.2756C246.513 12.7074 247.553 12.4233 248.754 12.4233C250.281 12.4233 251.52 12.9098 252.472 13.8828C253.43 14.8487 253.91 16.2195 253.91 17.995V29H249.382V18.8899C249.382 17.9808 249.141 17.299 248.658 16.8445C248.175 16.3899 247.571 16.1626 246.847 16.1626C246.023 16.1626 245.38 16.4254 244.918 16.951C244.457 17.4695 244.226 18.1548 244.226 19.0071V29H239.826V18.794C239.826 17.9915 239.595 17.3523 239.134 16.8764C238.679 16.4006 238.079 16.1626 237.333 16.1626C236.829 16.1626 236.374 16.2905 235.969 16.5462C235.572 16.7947 235.256 17.1463 235.021 17.6009C234.787 18.0483 234.67 18.5739 234.67 19.1776V29H230.131ZM262.161 29.3089C261.117 29.3089 260.186 29.1278 259.37 28.7656C258.553 28.3963 257.907 27.853 257.431 27.1357C256.962 26.4112 256.728 25.5092 256.728 24.4297C256.728 23.5206 256.895 22.7571 257.228 22.1392C257.562 21.5213 258.017 21.0241 258.592 20.6477C259.167 20.2713 259.821 19.9872 260.552 19.7955C261.291 19.6037 262.065 19.4688 262.875 19.3906C263.826 19.2912 264.593 19.1989 265.176 19.1136C265.758 19.0213 266.181 18.8864 266.444 18.7088C266.706 18.5312 266.838 18.2685 266.838 17.9205V17.8565C266.838 17.1818 266.625 16.6598 266.199 16.2905C265.779 15.9212 265.183 15.7365 264.409 15.7365C263.592 15.7365 262.942 15.9176 262.459 16.2798C261.976 16.6349 261.657 17.0824 261.5 17.6222L257.303 17.2812C257.516 16.2869 257.935 15.4276 258.56 14.7031C259.185 13.9716 259.991 13.4105 260.978 13.0199C261.973 12.6222 263.123 12.4233 264.43 12.4233C265.339 12.4233 266.209 12.5298 267.04 12.7429C267.878 12.956 268.62 13.2862 269.267 13.7337C269.92 14.1811 270.435 14.7564 270.811 15.4595C271.188 16.1555 271.376 16.9901 271.376 17.9631V29H267.072V26.7308H266.944C266.681 27.2422 266.33 27.6932 265.89 28.0838C265.449 28.4673 264.92 28.7692 264.302 28.9893C263.684 29.2024 262.971 29.3089 262.161 29.3089ZM263.461 26.1768C264.128 26.1768 264.718 26.0455 265.229 25.7827C265.74 25.5128 266.142 25.1506 266.433 24.696C266.724 24.2415 266.87 23.7266 266.87 23.1513V21.4148C266.728 21.5071 266.532 21.5923 266.284 21.6705C266.042 21.7415 265.769 21.8089 265.463 21.8729C265.158 21.9297 264.853 21.983 264.547 22.0327C264.242 22.0753 263.965 22.1143 263.716 22.1499C263.184 22.228 262.718 22.3523 262.321 22.5227C261.923 22.6932 261.614 22.924 261.394 23.2152C261.174 23.4993 261.064 23.8544 261.064 24.2805C261.064 24.8984 261.287 25.3707 261.735 25.6974C262.189 26.017 262.765 26.1768 263.461 26.1768ZM274.897 29V12.6364H279.297V15.4915H279.467C279.766 14.4759 280.266 13.7088 280.969 13.1903C281.673 12.6648 282.482 12.402 283.398 12.402C283.626 12.402 283.871 12.4162 284.134 12.4446C284.396 12.473 284.627 12.5121 284.826 12.5618V16.5888C284.613 16.5249 284.318 16.468 283.942 16.4183C283.565 16.3686 283.221 16.3438 282.908 16.3438C282.241 16.3438 281.644 16.4893 281.119 16.7805C280.6 17.0646 280.188 17.4624 279.883 17.9737C279.585 18.4851 279.435 19.0746 279.435 19.7422V29H274.897Z" fill="#496D78"/>
<g style="mix-blend-mode:multiply">
<rect x="113" y="2" width="67" height="30" fill="#496D78" fill-opacity="0.3"/>
</g>
<g style="mix-blend-mode:multiply">
<rect y="2" width="113" height="30" fill="#496D78" fill-opacity="0.5"/>
</g>
<path d="M1.89631 29V7.18182H6.50923V16.8018H6.79688L14.6484 7.18182H20.1776L12.081 16.951L20.2734 29H14.755L8.77841 20.0298L6.50923 22.7997V29H1.89631ZM22.4947 29V12.6364H26.8945V15.4915H27.065C27.3633 14.4759 27.864 13.7088 28.5671 13.1903C29.2702 12.6648 30.0799 12.402 30.9961 12.402C31.2234 12.402 31.4684 12.4162 31.7312 12.4446C31.994 12.473 32.2248 12.5121 32.4237 12.5618V16.5888C32.2106 16.5249 31.9158 16.468 31.5394 16.4183C31.163 16.3686 30.8185 16.3438 30.506 16.3438C29.8384 16.3438 29.2418 16.4893 28.7163 16.7805C28.1978 17.0646 27.7859 17.4624 27.4805 17.9737C27.1822 18.4851 27.033 19.0746 27.033 19.7422V29H22.4947ZM34.7701 29V12.6364H39.3084V29H34.7701ZM37.0499 10.527C36.3752 10.527 35.7963 10.3033 35.3134 9.85582C34.8375 9.40128 34.5996 8.85795 34.5996 8.22585C34.5996 7.60085 34.8375 7.06463 35.3134 6.61719C35.7963 6.16264 36.3752 5.93537 37.0499 5.93537C37.7246 5.93537 38.2999 6.16264 38.7757 6.61719C39.2587 7.06463 39.5002 7.60085 39.5002 8.22585C39.5002 8.85795 39.2587 9.40128 38.7757 9.85582C38.2999 10.3033 37.7246 10.527 37.0499 10.527ZM56.5589 17.3026L52.4041 17.5582C52.3331 17.2031 52.1804 16.8835 51.946 16.5994C51.7116 16.3082 51.4027 16.0774 51.0192 15.907C50.6428 15.7294 50.1918 15.6406 49.6662 15.6406C48.9631 15.6406 48.37 15.7898 47.8871 16.0881C47.4041 16.3793 47.1626 16.7699 47.1626 17.2599C47.1626 17.6506 47.3189 17.9808 47.6314 18.2507C47.9439 18.5206 48.4801 18.7372 49.2401 18.9006L52.2017 19.4972C53.7926 19.8239 54.9787 20.3494 55.7599 21.0739C56.5412 21.7983 56.9318 22.75 56.9318 23.929C56.9318 25.0014 56.6158 25.9425 55.9837 26.7521C55.3587 27.5618 54.4993 28.1939 53.4055 28.6484C52.3189 29.0959 51.0653 29.3196 49.6449 29.3196C47.4787 29.3196 45.7528 28.8686 44.4673 27.9666C43.1889 27.0575 42.4396 25.8217 42.2195 24.2592L46.6832 24.0249C46.8182 24.6854 47.1449 25.1896 47.6634 25.5376C48.1818 25.8786 48.8459 26.049 49.6555 26.049C50.451 26.049 51.0902 25.8963 51.5732 25.5909C52.0632 25.2784 52.3118 24.8771 52.3189 24.3871C52.3118 23.9751 52.1378 23.6378 51.7969 23.375C51.456 23.1051 50.9304 22.8991 50.2202 22.7571L47.3864 22.1925C45.7884 21.8729 44.5987 21.3189 43.8175 20.5305C43.0433 19.7422 42.6562 18.7372 42.6562 17.5156C42.6562 16.4645 42.9403 15.5589 43.5085 14.799C44.0838 14.0391 44.8899 13.4531 45.9268 13.0412C46.9709 12.6293 48.1925 12.4233 49.5916 12.4233C51.6584 12.4233 53.2848 12.8601 54.4709 13.7337C55.6641 14.6072 56.3601 15.7969 56.5589 17.3026ZM64.3279 19.5398V29H59.7896V7.18182H64.2001V15.5234H64.3919C64.7612 14.5575 65.3578 13.8011 66.1816 13.2543C67.0055 12.7003 68.0389 12.4233 69.2818 12.4233C70.4181 12.4233 71.4089 12.6719 72.2541 13.169C73.1064 13.6591 73.7669 14.3658 74.2356 15.2891C74.7115 16.2053 74.9458 17.3026 74.9387 18.581V29H70.4004V19.3906C70.4075 18.3821 70.1518 17.5973 69.6333 17.0362C69.122 16.4751 68.4047 16.1946 67.4814 16.1946C66.8635 16.1946 66.3166 16.326 65.8407 16.5888C65.372 16.8516 65.0027 17.2351 64.7328 17.7393C64.47 18.2365 64.335 18.8366 64.3279 19.5398ZM83.0487 19.5398V29H78.5103V12.6364H82.8356V15.5234H83.0273C83.3896 14.5717 83.9968 13.8189 84.8491 13.2649C85.7013 12.7038 86.7347 12.4233 87.9492 12.4233C89.0856 12.4233 90.0763 12.6719 90.9215 13.169C91.7667 13.6662 92.4237 14.3764 92.8924 15.2997C93.3612 16.2159 93.5955 17.3097 93.5955 18.581V29H89.0572V19.3906C89.0643 18.3892 88.8086 17.608 88.2901 17.0469C87.7717 16.4787 87.0579 16.1946 86.1488 16.1946C85.538 16.1946 84.9982 16.326 84.5295 16.5888C84.0678 16.8516 83.7056 17.2351 83.4428 17.7393C83.1871 18.2365 83.0558 18.8366 83.0487 19.5398ZM101.839 29.3089C100.795 29.3089 99.8642 29.1278 99.0474 28.7656C98.2306 28.3963 97.5843 27.853 97.1085 27.1357C96.6397 26.4112 96.4054 25.5092 96.4054 24.4297C96.4054 23.5206 96.5723 22.7571 96.9061 22.1392C97.2399 21.5213 97.6944 21.0241 98.2697 20.6477C98.845 20.2713 99.4984 19.9872 100.23 19.7955C100.969 19.6037 101.743 19.4688 102.552 19.3906C103.504 19.2912 104.271 19.1989 104.854 19.1136C105.436 19.0213 105.858 18.8864 106.121 18.7088C106.384 18.5312 106.515 18.2685 106.515 17.9205V17.8565C106.515 17.1818 106.302 16.6598 105.876 16.2905C105.457 15.9212 104.861 15.7365 104.086 15.7365C103.27 15.7365 102.62 15.9176 102.137 16.2798C101.654 16.6349 101.334 17.0824 101.178 17.6222L96.9806 17.2812C97.1937 16.2869 97.6127 15.4276 98.2377 14.7031C98.8627 13.9716 99.6689 13.4105 100.656 13.0199C101.65 12.6222 102.801 12.4233 104.108 12.4233C105.017 12.4233 105.887 12.5298 106.718 12.7429C107.556 12.956 108.298 13.2862 108.944 13.7337C109.598 14.1811 110.113 14.7564 110.489 15.4595C110.866 16.1555 111.054 16.9901 111.054 17.9631V29H106.75V26.7308H106.622C106.359 27.2422 106.008 27.6932 105.567 28.0838C105.127 28.4673 104.598 28.7692 103.98 28.9893C103.362 29.2024 102.648 29.3089 101.839 29.3089ZM103.138 26.1768C103.806 26.1768 104.395 26.0455 104.907 25.7827C105.418 25.5128 105.819 25.1506 106.111 24.696C106.402 24.2415 106.547 23.7266 106.547 23.1513V21.4148C106.405 21.5071 106.21 21.5923 105.961 21.6705C105.72 21.7415 105.447 21.8089 105.141 21.8729C104.836 21.9297 104.53 21.983 104.225 22.0327C103.92 22.0753 103.643 22.1143 103.394 22.1499C102.861 22.228 102.396 22.3523 101.998 22.5227C101.601 22.6932 101.292 22.924 101.072 23.2152C100.851 23.4993 100.741 23.8544 100.741 24.2805C100.741 24.8984 100.965 25.3707 101.412 25.6974C101.867 26.017 102.442 26.1768 103.138 26.1768Z" fill="#496D78"/>
<path d="M1.89631 29H1.39631V29.5H1.89631V29ZM1.89631 7.18182V6.68182H1.39631V7.18182H1.89631ZM6.50923 7.18182H7.00923V6.68182H6.50923V7.18182ZM6.50923 16.8018H6.00923V17.3018H6.50923V16.8018ZM6.79688 16.8018V17.3018H7.03418L7.18424 17.118L6.79688 16.8018ZM14.6484 7.18182V6.68182H14.4111L14.2611 6.86567L14.6484 7.18182ZM20.1776 7.18182L20.5625 7.50088L21.2414 6.68182H20.1776V7.18182ZM12.081 16.951L11.696 16.6319L11.4562 16.9213L11.6675 17.2321L12.081 16.951ZM20.2734 29V29.5H21.218L20.6869 28.7189L20.2734 29ZM14.755 29L14.3389 29.2772L14.4873 29.5H14.755V29ZM8.77841 20.0298L9.19451 19.7526L8.81985 19.1903L8.39163 19.713L8.77841 20.0298ZM6.50923 22.7997L6.12245 22.4829L6.00923 22.6211V22.7997H6.50923ZM6.50923 29V29.5H7.00923V29H6.50923ZM2.39631 29V7.18182H1.39631V29H2.39631ZM1.89631 7.68182H6.50923V6.68182H1.89631V7.68182ZM6.00923 7.18182V16.8018H7.00923V7.18182H6.00923ZM6.50923 17.3018H6.79688V16.3018H6.50923V17.3018ZM7.18424 17.118L15.0358 7.49797L14.2611 6.86567L6.40951 16.4857L7.18424 17.118ZM14.6484 7.68182H20.1776V6.68182H14.6484V7.68182ZM19.7926 6.86276L11.696 16.6319L12.4659 17.2701L20.5625 7.50088L19.7926 6.86276ZM11.6675 17.2321L19.86 29.2811L20.6869 28.7189L12.4944 16.6699L11.6675 17.2321ZM20.2734 28.5H14.755V29.5H20.2734V28.5ZM15.1711 28.7228L9.19451 19.7526L8.36231 20.3071L14.3389 29.2772L15.1711 28.7228ZM8.39163 19.713L6.12245 22.4829L6.89601 23.1166L9.16519 20.3467L8.39163 19.713ZM6.00923 22.7997V29H7.00923V22.7997H6.00923ZM6.50923 28.5H1.89631V29.5H6.50923V28.5ZM22.4947 29H21.9947V29.5H22.4947V29ZM22.4947 12.6364V12.1364H21.9947V12.6364H22.4947ZM26.8945 12.6364H27.3945V12.1364H26.8945V12.6364ZM26.8945 15.4915H26.3945V15.9915H26.8945V15.4915ZM27.065 15.4915V15.9915H27.4393L27.5447 15.6324L27.065 15.4915ZM28.5671 13.1903L28.8639 13.5928L28.8665 13.5908L28.5671 13.1903ZM31.7312 12.4446L31.7849 11.9475L31.7849 11.9475L31.7312 12.4446ZM32.4237 12.5618H32.9237V12.1714L32.5449 12.0767L32.4237 12.5618ZM32.4237 16.5888L32.28 17.0677L32.9237 17.2608V16.5888H32.4237ZM28.7163 16.7805L28.9565 17.219L28.9586 17.2179L28.7163 16.7805ZM27.4805 17.9737L27.0512 17.7173L27.0486 17.7218L27.4805 17.9737ZM27.033 29V29.5H27.533V29H27.033ZM22.9947 29V12.6364H21.9947V29H22.9947ZM22.4947 13.1364H26.8945V12.1364H22.4947V13.1364ZM26.3945 12.6364V15.4915H27.3945V12.6364H26.3945ZM26.8945 15.9915H27.065V14.9915H26.8945V15.9915ZM27.5447 15.6324C27.8189 14.6988 28.266 14.0336 28.8639 13.5928L28.2704 12.7879C27.462 13.384 26.9076 14.2529 26.5852 15.3506L27.5447 15.6324ZM28.8665 13.5908C29.4792 13.1328 30.1828 12.902 30.9961 12.902V11.902C29.977 11.902 29.0613 12.1967 28.2678 12.7899L28.8665 13.5908ZM30.9961 12.902C31.2028 12.902 31.4297 12.9149 31.6774 12.9417L31.7849 11.9475C31.5071 11.9175 31.2439 11.902 30.9961 11.902V12.902ZM31.6774 12.9417C31.9236 12.9683 32.131 13.004 32.3024 13.0469L32.5449 12.0767C32.3186 12.0201 32.0643 11.9777 31.7849 11.9475L31.6774 12.9417ZM31.9237 12.5618V16.5888H32.9237V12.5618H31.9237ZM32.5673 16.1099C32.317 16.0348 31.9921 15.9738 31.6049 15.9226L31.4739 16.914C31.8396 16.9623 32.1042 17.0149 32.28 17.0677L32.5673 16.1099ZM31.6049 15.9226C31.2112 15.8706 30.8445 15.8438 30.506 15.8438V16.8438C30.7926 16.8438 31.1148 16.8666 31.4739 16.914L31.6049 15.9226ZM30.506 15.8438C29.7633 15.8438 29.0816 16.0065 28.4739 16.3432L28.9586 17.2179C29.402 16.9722 29.9136 16.8438 30.506 16.8438V15.8438ZM28.476 16.3421C27.8788 16.6693 27.4019 17.1301 27.0512 17.7174L27.9097 18.2301C28.1698 17.7946 28.5168 17.46 28.9565 17.219L28.476 16.3421ZM27.0486 17.7218C26.7002 18.319 26.533 18.9976 26.533 19.7422H27.533C27.533 19.1516 27.6641 18.6512 27.9124 18.2257L27.0486 17.7218ZM26.533 19.7422V29H27.533V19.7422H26.533ZM27.033 28.5H22.4947V29.5H27.033V28.5ZM34.7701 29H34.2701V29.5H34.7701V29ZM34.7701 12.6364V12.1364H34.2701V12.6364H34.7701ZM39.3084 12.6364H39.8084V12.1364H39.3084V12.6364ZM39.3084 29V29.5H39.8084V29H39.3084ZM35.3134 9.85582L34.968 10.2174L34.9736 10.2226L35.3134 9.85582ZM35.3134 6.61719L35.6559 6.98145L35.6561 6.98129L35.3134 6.61719ZM38.7757 6.61719L38.4303 6.97878L38.4359 6.98397L38.7757 6.61719ZM38.7757 9.85582L39.1183 10.2201L39.1184 10.2199L38.7757 9.85582ZM35.2701 29V12.6364H34.2701V29H35.2701ZM34.7701 13.1364H39.3084V12.1364H34.7701V13.1364ZM38.8084 12.6364V29H39.8084V12.6364H38.8084ZM39.3084 28.5H34.7701V29.5H39.3084V28.5ZM37.0499 10.027C36.4977 10.027 36.0412 9.84852 35.6532 9.48904L34.9736 10.2226C35.5515 10.758 36.2526 11.027 37.0499 11.027V10.027ZM35.6588 9.49427C35.2771 9.12971 35.0996 8.7152 35.0996 8.22585H34.0996C34.0996 9.00071 34.398 9.67285 34.968 10.2174L35.6588 9.49427ZM35.0996 8.22585C35.0996 7.74564 35.2754 7.33919 35.6559 6.98145L34.9709 6.25293C34.3996 6.79007 34.0996 7.45606 34.0996 8.22585H35.0996ZM35.6561 6.98129C36.0445 6.6157 36.5001 6.43537 37.0499 6.43537V5.43537C36.2503 5.43537 35.5482 5.70958 34.9707 6.25309L35.6561 6.98129ZM37.0499 6.43537C37.5996 6.43537 38.0501 6.61553 38.4304 6.97874L39.1211 6.25563C38.5497 5.70976 37.8496 5.43537 37.0499 5.43537V6.43537ZM38.4359 6.98397C38.8229 7.34247 39.0002 7.74824 39.0002 8.22585H40.0002C40.0002 7.45347 39.6945 6.78679 39.1156 6.25041L38.4359 6.98397ZM39.0002 8.22585C39.0002 8.71264 38.8212 9.12644 38.4331 9.49172L39.1184 10.2199C39.6962 9.67612 40.0002 9.00327 40.0002 8.22585H39.0002ZM38.4332 9.49156C38.0534 9.84868 37.602 10.027 37.0499 10.027V11.027C37.8472 11.027 38.5463 10.7579 39.1183 10.2201L38.4332 9.49156ZM56.5589 17.3026L56.5897 17.8016L57.1249 17.7687L57.0546 17.2371L56.5589 17.3026ZM52.4041 17.5582L51.9138 17.6563L51.9994 18.0841L52.4348 18.0573L52.4041 17.5582ZM51.946 16.5994L51.5565 16.913L51.5603 16.9176L51.946 16.5994ZM51.0192 15.907L50.8058 16.3593L50.8161 16.3639L51.0192 15.907ZM47.8871 16.0881L48.1453 16.5163L48.1498 16.5135L47.8871 16.0881ZM47.6314 18.2507L47.3046 18.6291L47.3046 18.6291L47.6314 18.2507ZM49.2401 18.9006L49.135 19.3894L49.1413 19.3907L49.2401 18.9006ZM52.2017 19.4972L52.3023 19.0074L52.3004 19.007L52.2017 19.4972ZM55.7599 21.0739L55.42 21.4405L55.42 21.4405L55.7599 21.0739ZM55.9837 26.7521L55.5895 26.4444L55.5879 26.4466L55.9837 26.7521ZM53.4055 28.6484L53.5959 29.1108L53.5974 29.1102L53.4055 28.6484ZM44.4673 27.9666L44.1776 28.3741L44.1801 28.3759L44.4673 27.9666ZM42.2195 24.2592L42.1932 23.7599L41.6482 23.7885L41.7244 24.329L42.2195 24.2592ZM46.6832 24.0249L47.1731 23.9248L47.0869 23.503L46.657 23.5255L46.6832 24.0249ZM47.6634 25.5376L47.3847 25.9528L47.3886 25.9554L47.6634 25.5376ZM51.5732 25.5909L51.8404 26.0135L51.842 26.0125L51.5732 25.5909ZM52.3189 24.3871L52.8188 24.3943L52.819 24.3864L52.8188 24.3785L52.3189 24.3871ZM51.7969 23.375L51.4865 23.7671L51.4916 23.771L51.7969 23.375ZM50.2202 22.7571L50.3182 22.2668L50.3179 22.2667L50.2202 22.7571ZM47.3864 22.1925L47.2883 22.6828L47.2887 22.6828L47.3864 22.1925ZM43.8175 20.5305L43.4607 20.8809L43.4623 20.8825L43.8175 20.5305ZM43.5085 14.799L43.1099 14.4972L43.1081 14.4996L43.5085 14.799ZM45.9268 13.0412L45.7433 12.5761L45.7422 12.5765L45.9268 13.0412ZM54.4709 13.7337L54.1744 14.1363L54.1755 14.1371L54.4709 13.7337ZM56.5282 16.8035L52.3734 17.0592L52.4348 18.0573L56.5897 17.8016L56.5282 16.8035ZM52.8944 17.4602C52.8069 17.0228 52.6176 16.6278 52.3317 16.2812L51.5603 16.9176C51.7431 17.1392 51.8593 17.3835 51.9138 17.6563L52.8944 17.4602ZM52.3355 16.2859C52.0455 15.9255 51.6694 15.6488 51.2222 15.4501L50.8161 16.3639C51.136 16.506 51.3778 16.691 51.5565 16.9129L52.3355 16.2859ZM51.2325 15.4547C50.7742 15.2386 50.2467 15.1406 49.6662 15.1406V16.1406C50.1368 16.1406 50.5113 16.2202 50.8059 16.3592L51.2325 15.4547ZM49.6662 15.1406C48.8923 15.1406 48.2031 15.3052 47.6243 15.6627L48.1498 16.5135C48.5369 16.2744 49.0338 16.1406 49.6662 16.1406V15.1406ZM47.6289 15.6599C47.0227 16.0254 46.6626 16.5654 46.6626 17.2599H47.6626C47.6626 16.9744 47.7855 16.7332 48.1452 16.5163L47.6289 15.6599ZM46.6626 17.2599C46.6626 17.8051 46.8892 18.2704 47.3046 18.6291L47.9582 17.8723C47.7485 17.6912 47.6626 17.4961 47.6626 17.2599H46.6626ZM47.3046 18.6291C47.715 18.9836 48.3536 19.2214 49.135 19.3894L49.3451 18.4117C48.6067 18.253 48.1728 18.0576 47.9582 17.8723L47.3046 18.6291ZM49.1413 19.3907L52.103 19.9873L52.3004 19.007L49.3388 18.4104L49.1413 19.3907ZM52.1011 19.9869C53.6459 20.3042 54.7321 20.8027 55.42 21.4405L56.0999 20.7072C55.2253 19.8962 53.9394 19.3436 52.3023 19.0074L52.1011 19.9869ZM55.42 21.4405C56.0877 22.0597 56.4318 22.8727 56.4318 23.929H57.4318C57.4318 22.6273 56.9947 21.5369 56.0999 20.7072L55.42 21.4405ZM56.4318 23.929C56.4318 24.8952 56.1499 25.7267 55.5895 26.4444L56.3778 27.0598C57.0817 26.1582 57.4318 25.1076 57.4318 23.929H56.4318ZM55.5879 26.4466C55.024 27.1771 54.2398 27.7603 53.2137 28.1867L53.5974 29.1102C54.7587 28.6275 55.6933 27.9465 56.3795 27.0577L55.5879 26.4466ZM53.2152 28.1861C52.2001 28.6041 51.0133 28.8196 49.6449 28.8196V29.8196C51.1173 29.8196 52.4377 29.5877 53.5959 29.1108L53.2152 28.1861ZM49.6449 28.8196C47.5435 28.8196 45.9294 28.3817 44.7545 27.5573L44.1801 28.3759C45.5763 29.3555 47.4139 29.8196 49.6449 29.8196V28.8196ZM44.7571 27.5591C43.5914 26.7302 42.9157 25.6169 42.7146 24.1895L41.7244 24.329C41.9636 26.0266 42.7865 27.3849 44.1776 28.3741L44.7571 27.5591ZM42.2457 24.7585L46.7095 24.5242L46.657 23.5255L42.1932 23.7599L42.2457 24.7585ZM46.1934 24.1249C46.3523 24.9028 46.748 25.5254 47.3847 25.9528L47.942 25.1225C47.5418 24.8539 47.2841 24.4679 47.1731 23.9248L46.1934 24.1249ZM47.3886 25.9554C48.0102 26.3641 48.7776 26.549 49.6555 26.549V25.549C48.9142 25.549 48.3535 25.393 47.9381 25.1199L47.3886 25.9554ZM49.6555 26.549C50.51 26.549 51.2519 26.3856 51.8404 26.0135L51.3059 25.1683C50.9285 25.407 50.392 25.549 49.6555 25.549V26.549ZM51.842 26.0125C52.4434 25.629 52.8088 25.0858 52.8188 24.3943L51.8189 24.3798C51.8148 24.6685 51.683 24.9278 51.3043 25.1693L51.842 26.0125ZM52.8188 24.3785C52.809 23.8068 52.5572 23.3298 52.1021 22.979L51.4916 23.771C51.7184 23.9458 51.8146 24.1435 51.819 24.3957L52.8188 24.3785ZM52.1072 22.983C51.6761 22.6417 51.0606 22.4153 50.3182 22.2668L50.1221 23.2474C50.8002 23.383 51.2358 23.5686 51.4865 23.767L52.1072 22.983ZM50.3179 22.2667L47.4841 21.7021L47.2887 22.6828L50.1225 23.2475L50.3179 22.2667ZM47.4844 21.7022C45.9407 21.3934 44.8582 20.8704 44.1726 20.1786L43.4623 20.8825C44.3393 21.7674 45.636 22.3523 47.2883 22.6828L47.4844 21.7022ZM44.1742 20.1802C43.502 19.4956 43.1562 18.6213 43.1562 17.5156H42.1562C42.1562 18.8531 42.5847 19.9887 43.4607 20.8809L44.1742 20.1802ZM43.1562 17.5156C43.1562 16.5602 43.4124 15.7626 43.909 15.0984L43.1081 14.4996C42.4683 15.3553 42.1562 16.3688 42.1562 17.5156H43.1562ZM43.9072 15.1008C44.4185 14.4253 45.1447 13.8899 46.1114 13.5059L45.7422 12.5765C44.6351 13.0163 43.7491 13.6528 43.1099 14.4972L43.9072 15.1008ZM46.1104 13.5063C47.0835 13.1223 48.2404 12.9233 49.5916 12.9233V11.9233C48.1446 11.9233 46.8583 12.1362 45.7433 12.5761L46.1104 13.5063ZM49.5916 12.9233C51.5935 12.9233 53.1027 13.3469 54.1744 14.1363L54.7674 13.3311C53.4669 12.3732 51.7232 11.9233 49.5916 11.9233V12.9233ZM54.1755 14.1371C55.2553 14.9276 55.8817 15.9935 56.0633 17.368L57.0546 17.2371C56.8385 15.6003 56.0728 14.2868 54.7663 13.3302L54.1755 14.1371ZM64.3279 19.5398L63.8279 19.5347V19.5398H64.3279ZM64.3279 29V29.5H64.8279V29H64.3279ZM59.7896 29H59.2896V29.5H59.7896V29ZM59.7896 7.18182V6.68182H59.2896V7.18182H59.7896ZM64.2001 7.18182H64.7001V6.68182H64.2001V7.18182ZM64.2001 15.5234H63.7001V16.0234H64.2001V15.5234ZM64.3919 15.5234V16.0234H64.736L64.8589 15.702L64.3919 15.5234ZM66.1816 13.2543L66.4582 13.6708L66.4606 13.6692L66.1816 13.2543ZM72.2541 13.169L72.0006 13.6L72.0048 13.6025L72.2541 13.169ZM74.2356 15.2891L73.7898 15.5154L73.7919 15.5195L74.2356 15.2891ZM74.9387 18.581L74.4387 18.5782V18.581H74.9387ZM74.9387 29V29.5H75.4387V29H74.9387ZM70.4004 29H69.9004V29.5H70.4004V29ZM70.4004 19.3906L69.9004 19.3871V19.3906H70.4004ZM69.6333 17.0362L69.2638 17.373L69.2661 17.3756L69.6333 17.0362ZM65.8407 16.5888L65.599 16.1511L65.5962 16.1526L65.8407 16.5888ZM64.7328 17.7393L64.2919 17.5034L64.2907 17.5057L64.7328 17.7393ZM63.8279 19.5398V29H64.8279V19.5398H63.8279ZM64.3279 28.5H59.7896V29.5H64.3279V28.5ZM60.2896 29V7.18182H59.2896V29H60.2896ZM59.7896 7.68182H64.2001V6.68182H59.7896V7.68182ZM63.7001 7.18182V15.5234H64.7001V7.18182H63.7001ZM64.2001 16.0234H64.3919V15.0234H64.2001V16.0234ZM64.8589 15.702C65.1928 14.8286 65.7252 14.1574 66.4582 13.6708L65.9051 12.8377C64.9904 13.4449 64.3295 14.2865 63.9248 15.3449L64.8589 15.702ZM66.4606 13.6692C67.1834 13.1832 68.1132 12.9233 69.2818 12.9233V11.9233C67.9646 11.9233 66.8276 12.2174 65.9026 12.8393L66.4606 13.6692ZM69.2818 12.9233C70.3434 12.9233 71.2437 13.1548 72.0006 13.6L72.5076 12.7381C71.5741 12.1889 70.4929 11.9233 69.2818 11.9233V12.9233ZM72.0048 13.6025C72.7682 14.0414 73.3626 14.6739 73.7898 15.5154L74.6815 15.0627C74.1712 14.0576 73.4445 13.2767 72.5033 12.7356L72.0048 13.6025ZM73.7919 15.5195C74.2225 16.3485 74.4455 17.3619 74.4388 18.5782L75.4387 18.5837C75.4462 17.2432 75.2005 16.062 74.6793 15.0586L73.7919 15.5195ZM74.4387 18.581V29H75.4387V18.581H74.4387ZM74.9387 28.5H70.4004V29.5H74.9387V28.5ZM70.9004 29V19.3906H69.9004V29H70.9004ZM70.9004 19.3941C70.9081 18.3004 70.6299 17.3779 70.0006 16.6969L69.2661 17.3756C69.6737 17.8167 69.9069 18.4638 69.9004 19.3871L70.9004 19.3941ZM70.0029 16.6994C69.3767 16.0123 68.5124 15.6946 67.4814 15.6946V16.6946C68.2969 16.6946 68.8673 16.938 69.2638 17.373L70.0029 16.6994ZM67.4814 15.6946C66.7906 15.6946 66.1585 15.8421 65.599 16.1511L66.0824 17.0265C66.4747 16.8099 66.9363 16.6946 67.4814 16.6946V15.6946ZM65.5962 16.1526C65.0389 16.4651 64.6038 16.9207 64.2919 17.5034L65.1736 17.9753C65.4015 17.5495 65.7051 17.238 66.0852 17.0249L65.5962 16.1526ZM64.2907 17.5057C63.9825 18.0888 63.8357 18.7714 63.828 19.5347L64.8279 19.5448C64.8344 18.9019 64.9575 18.3842 65.1748 17.973L64.2907 17.5057ZM83.0487 19.5398L82.5487 19.5347V19.5398H83.0487ZM83.0487 29V29.5H83.5487V29H83.0487ZM78.5103 29H78.0103V29.5H78.5103V29ZM78.5103 12.6364V12.1364H78.0103V12.6364H78.5103ZM82.8356 12.6364H83.3356V12.1364H82.8356V12.6364ZM82.8356 15.5234H82.3356V16.0234H82.8356V15.5234ZM83.0273 15.5234V16.0234H83.372L83.4946 15.7013L83.0273 15.5234ZM84.8491 13.2649L85.1216 13.6841L85.124 13.6825L84.8491 13.2649ZM90.9215 13.169L91.175 12.7381L91.175 12.7381L90.9215 13.169ZM92.8924 15.2997L92.4466 15.5261L92.4473 15.5275L92.8924 15.2997ZM93.5955 29V29.5H94.0955V29H93.5955ZM89.0572 29H88.5572V29.5H89.0572V29ZM89.0572 19.3906L88.5572 19.3871V19.3906H89.0572ZM88.2901 17.0469L87.9208 17.3839L87.9229 17.3862L88.2901 17.0469ZM84.5295 16.5888L84.285 16.1526L84.2821 16.1542L84.5295 16.5888ZM83.4428 17.7393L82.9994 17.5083L82.9982 17.5107L83.4428 17.7393ZM82.5487 19.5398V29H83.5487V19.5398H82.5487ZM83.0487 28.5H78.5103V29.5H83.0487V28.5ZM79.0103 29V12.6364H78.0103V29H79.0103ZM78.5103 13.1364H82.8356V12.1364H78.5103V13.1364ZM82.3356 12.6364V15.5234H83.3356V12.6364H82.3356ZM82.8356 16.0234H83.0273V15.0234H82.8356V16.0234ZM83.4946 15.7013C83.8192 14.8485 84.3583 14.1802 85.1216 13.6841L84.5766 12.8457C83.6353 13.4576 82.9599 14.295 82.56 15.3456L83.4946 15.7013ZM85.124 13.6825C85.8802 13.1847 86.8136 12.9233 87.9492 12.9233V11.9233C86.6559 11.9233 85.5225 12.223 84.5741 12.8473L85.124 13.6825ZM87.9492 12.9233C89.0108 12.9233 89.9112 13.1548 90.668 13.6L91.175 12.7381C90.2415 12.1889 89.1604 11.9233 87.9492 11.9233V12.9233ZM90.668 13.6C91.4261 14.046 92.0185 14.6829 92.4466 15.5261L93.3382 15.0734C92.8288 14.0699 92.1072 13.2864 91.175 12.7381L90.668 13.6ZM92.4473 15.5275C92.8725 16.3585 93.0955 17.3705 93.0955 18.581H94.0955C94.0955 17.2488 93.8498 16.0733 93.3375 15.072L92.4473 15.5275ZM93.0955 18.581V29H94.0955V18.581H93.0955ZM93.5955 28.5H89.0572V29.5H93.5955V28.5ZM89.5572 29V19.3906H88.5572V29H89.5572ZM89.5572 19.3942C89.5649 18.3064 89.2861 17.388 88.6574 16.7075L87.9229 17.3862C88.3311 17.8279 88.5637 18.472 88.5572 19.3871L89.5572 19.3942ZM88.6595 16.7098C88.029 16.0189 87.1705 15.6946 86.1488 15.6946V16.6946C86.9452 16.6946 87.5144 16.9385 87.9208 17.3839L88.6595 16.7098ZM86.1488 15.6946C85.4642 15.6946 84.8381 15.8425 84.285 16.1526L84.774 17.0249C85.1583 16.8095 85.6117 16.6946 86.1488 16.6946V15.6946ZM84.2821 16.1542C83.731 16.468 83.3034 16.925 82.9994 17.5083L83.8862 17.9704C84.1079 17.5451 84.4047 17.2351 84.7768 17.0233L84.2821 16.1542ZM82.9982 17.5107C82.6989 18.0926 82.5564 18.7733 82.5487 19.5347L83.5486 19.5448C83.5551 18.9 83.6754 18.3804 83.8875 17.968L82.9982 17.5107ZM99.0474 28.7656L98.8414 29.2212L98.8447 29.2227L99.0474 28.7656ZM97.1085 27.1357L96.6887 27.4073L96.6918 27.4121L97.1085 27.1357ZM96.9061 22.1392L96.4662 21.9016L96.4662 21.9016L96.9061 22.1392ZM98.2697 20.6477L97.9959 20.2293L97.9959 20.2293L98.2697 20.6477ZM100.23 19.7955L100.104 19.3115L100.103 19.3118L100.23 19.7955ZM102.552 19.3906L102.6 19.8883L102.604 19.8879L102.552 19.3906ZM104.854 19.1136L104.926 19.6084L104.932 19.6075L104.854 19.1136ZM106.121 18.7088L105.841 18.2945L105.841 18.2945L106.121 18.7088ZM105.876 16.2905L105.546 16.6656L105.549 16.6683L105.876 16.2905ZM102.137 16.2798L102.433 16.6827L102.437 16.6798L102.137 16.2798ZM101.178 17.6222L101.138 18.1205L101.545 18.1536L101.658 17.7612L101.178 17.6222ZM96.9806 17.2812L96.4917 17.1765L96.3724 17.7335L96.9402 17.7796L96.9806 17.2812ZM98.2377 14.7031L98.6163 15.0297L98.6179 15.0279L98.2377 14.7031ZM100.656 13.0199L100.84 13.4848L100.842 13.4841L100.656 13.0199ZM106.718 12.7429L106.594 13.2272L106.595 13.2275L106.718 12.7429ZM108.944 13.7337L108.66 14.1448L108.662 14.1462L108.944 13.7337ZM110.489 15.4595L110.048 15.6955L110.049 15.6974L110.489 15.4595ZM111.054 29V29.5H111.554V29H111.054ZM106.75 29H106.25V29.5H106.75V29ZM106.75 26.7308H107.25V26.2308H106.75V26.7308ZM106.622 26.7308V26.2308H106.317L106.177 26.5023L106.622 26.7308ZM105.567 28.0838L105.896 28.4609L105.899 28.4578L105.567 28.0838ZM103.98 28.9893L104.143 29.4621L104.148 29.4603L103.98 28.9893ZM104.907 25.7827L105.135 26.2274L105.14 26.2249L104.907 25.7827ZM106.111 24.696L105.69 24.4263L105.69 24.4263L106.111 24.696ZM106.547 21.4148H107.047V20.4934L106.275 20.9956L106.547 21.4148ZM105.961 21.6705L106.103 22.1502L106.111 22.1475L105.961 21.6705ZM105.141 21.8729L105.233 22.3646L105.244 22.3623L105.141 21.8729ZM104.225 22.0327L104.294 22.528L104.305 22.5262L104.225 22.0327ZM103.394 22.1499L103.323 21.6549L103.321 21.6552L103.394 22.1499ZM101.998 22.5227L102.195 22.9823L102.195 22.9823L101.998 22.5227ZM101.072 23.2152L101.467 23.5215L101.47 23.5168L101.072 23.2152ZM101.412 25.6974L101.118 26.1013L101.125 26.1065L101.412 25.6974ZM101.839 28.8089C100.853 28.8089 99.9932 28.6381 99.2501 28.3086L98.8447 29.2227C99.7351 29.6176 100.736 29.8089 101.839 29.8089V28.8089ZM99.2534 28.31C98.5186 27.9778 97.9468 27.4949 97.5251 26.8593L96.6918 27.4121C97.2219 28.2111 97.9427 28.8148 98.8414 29.2212L99.2534 28.31ZM97.5283 26.864C97.1236 26.2387 96.9054 25.437 96.9054 24.4297H95.9054C95.9054 25.5814 96.1559 26.5838 96.6887 27.4073L97.5283 26.864ZM96.9054 24.4297C96.9054 23.5798 97.0615 22.9034 97.346 22.3769L96.4662 21.9016C96.083 22.6108 95.9054 23.4614 95.9054 24.4297H96.9054ZM97.346 22.3769C97.6412 21.8304 98.0393 21.396 98.5435 21.0661L97.9959 20.2293C97.3496 20.6523 96.8386 21.2122 96.4662 21.9016L97.346 22.3769ZM98.5435 21.0661C99.0693 20.722 99.6722 20.4586 100.357 20.2791L100.103 19.3118C99.3246 19.5159 98.6207 19.8206 97.9959 20.2293L98.5435 21.0661ZM100.356 20.2794C101.067 20.0947 101.815 19.9641 102.6 19.8883L102.504 18.8929C101.67 18.9734 100.87 19.1127 100.104 19.3115L100.356 20.2794ZM102.604 19.8879C103.559 19.7882 104.334 19.695 104.926 19.6084L104.781 18.6189C104.208 18.7027 103.449 18.7942 102.5 18.8933L102.604 19.8879ZM104.932 19.6075C105.535 19.5119 106.046 19.3632 106.401 19.1231L105.841 18.2945C105.671 18.4095 105.337 18.5307 104.775 18.6198L104.932 19.6075ZM106.401 19.1231C106.817 18.8424 107.015 18.4155 107.015 17.9205H106.015C106.015 18.1214 105.951 18.2201 105.841 18.2945L106.401 19.1231ZM107.015 17.9205V17.8565H106.015V17.9205H107.015ZM107.015 17.8565C107.015 17.0681 106.761 16.3956 106.204 15.9126L105.549 16.6683C105.844 16.924 106.015 17.2956 106.015 17.8565H107.015ZM106.207 15.9154C105.667 15.4392 104.935 15.2365 104.086 15.2365V16.2365C104.786 16.2365 105.248 16.4032 105.546 16.6656L106.207 15.9154ZM104.086 15.2365C103.199 15.2365 102.432 15.4332 101.837 15.8798L102.437 16.6798C102.807 16.402 103.34 16.2365 104.086 16.2365V15.2365ZM101.841 15.877C101.275 16.2927 100.887 16.8302 100.698 17.4831L101.658 17.7612C101.782 17.3345 102.033 16.9772 102.433 16.6827L101.841 15.877ZM101.219 17.1238L97.0211 16.7829L96.9402 17.7796L101.138 18.1205L101.219 17.1238ZM97.4695 17.386C97.6662 16.4684 98.0496 15.6867 98.6163 15.0297L97.8592 14.3765C97.1759 15.1685 96.7213 16.1055 96.4917 17.1765L97.4695 17.386ZM98.6179 15.0279C99.1846 14.3646 99.9207 13.8486 100.84 13.4848L100.472 12.555C99.417 12.9724 98.5409 13.5786 97.8576 14.3783L98.6179 15.0279ZM100.842 13.4841C101.766 13.1146 102.851 12.9233 104.108 12.9233V11.9233C102.751 11.9233 101.535 12.1297 100.47 12.5556L100.842 13.4841ZM104.108 12.9233C104.977 12.9233 105.806 13.0252 106.594 13.2272L106.842 12.2586C105.968 12.0345 105.056 11.9233 104.108 11.9233V12.9233ZM106.595 13.2275C107.381 13.4273 108.067 13.7345 108.66 14.1448L109.229 13.3226C108.529 12.838 107.731 12.4846 106.841 12.2583L106.595 13.2275ZM108.662 14.1462C109.249 14.548 109.71 15.0626 110.048 15.6955L110.93 15.2235C110.516 14.4502 109.947 13.8142 109.227 13.3211L108.662 14.1462ZM110.049 15.6974C110.378 16.3054 110.554 17.0543 110.554 17.9631H111.554C111.554 16.9258 111.353 16.0057 110.929 15.2217L110.049 15.6974ZM110.554 17.9631V29H111.554V17.9631H110.554ZM111.054 28.5H106.75V29.5H111.054V28.5ZM107.25 29V26.7308H106.25V29H107.25ZM106.75 26.2308H106.622V27.2308H106.75V26.2308ZM106.177 26.5023C105.943 26.9573 105.631 27.3592 105.235 27.7098L105.899 28.4578C106.385 28.0271 106.775 27.5271 107.067 26.9594L106.177 26.5023ZM105.239 27.7068C104.851 28.0444 104.378 28.3166 103.812 28.5184L104.148 29.4603C104.817 29.2217 105.403 28.8902 105.896 28.4608L105.239 27.7068ZM103.817 28.5167C103.262 28.7079 102.606 28.8089 101.839 28.8089V29.8089C102.691 29.8089 103.462 29.6969 104.143 29.462L103.817 28.5167ZM103.138 26.6768C103.873 26.6768 104.543 26.5319 105.135 26.2274L104.678 25.338C104.248 25.559 103.739 25.6768 103.138 25.6768V26.6768ZM105.14 26.2249C105.722 25.9176 106.191 25.4982 106.532 24.9657L105.69 24.4263C105.448 24.803 105.114 25.1079 104.673 25.3405L105.14 26.2249ZM106.532 24.9657C106.878 24.4253 107.047 23.8156 107.047 23.1513H106.047C106.047 23.6375 105.926 24.0576 105.69 24.4263L106.532 24.9657ZM107.047 23.1513V21.4148H106.047V23.1513H107.047ZM106.275 20.9956C106.186 21.0536 106.037 21.1225 105.812 21.1935L106.111 22.1475C106.383 22.0622 106.625 21.9606 106.82 21.834L106.275 20.9956ZM105.82 21.1908C105.594 21.2573 105.334 21.3217 105.039 21.3835L105.244 22.3623C105.559 22.2962 105.846 22.2257 106.103 22.1501L105.82 21.1908ZM105.05 21.3813C104.748 21.4374 104.446 21.4901 104.145 21.5392L104.305 22.5262C104.614 22.4759 104.924 22.4219 105.233 22.3644L105.05 21.3813ZM104.156 21.5375C103.85 21.5801 103.573 21.6193 103.323 21.6549L103.465 22.6448C103.713 22.6094 103.989 22.5704 104.294 22.5279L104.156 21.5375ZM103.321 21.6552C102.756 21.7381 102.247 21.8721 101.801 22.0632L102.195 22.9823C102.545 22.8324 102.967 22.7179 103.467 22.6446L103.321 21.6552ZM101.801 22.0632C101.339 22.2615 100.954 22.5413 100.673 22.9136L101.47 23.5168C101.629 23.3067 101.863 23.1249 102.195 22.9823L101.801 22.0632ZM100.676 22.9089C100.376 23.2961 100.241 23.7648 100.241 24.2805H101.241C101.241 23.944 101.327 23.7024 101.467 23.5215L100.676 22.9089ZM100.241 24.2805C100.241 25.0368 100.525 25.6685 101.118 26.1013L101.707 25.2936C101.405 25.0729 101.241 24.7601 101.241 24.2805H100.241ZM101.125 26.1065C101.683 26.4987 102.366 26.6768 103.138 26.6768V25.6768C102.519 25.6768 102.051 25.5354 101.7 25.2884L101.125 26.1065ZM114.204 29H113.704V29.5H114.204V29ZM118.374 29V29.5H118.874V29H118.374ZM118.374 24.83L118.026 24.471L117.874 24.6183V24.83H118.374ZM120.324 22.94V22.44H120.121L119.976 22.581L120.324 22.94ZM123.174 23.54L123.527 23.1864L123.521 23.1799L123.514 23.1736L123.174 23.54ZM124.284 25.37L124.754 25.1991L124.753 25.1963L124.284 25.37ZM125.604 29L125.134 29.1709L125.253 29.5H125.604V29ZM129.954 29V29.5H130.675L130.422 28.8244L129.954 29ZM127.794 23.24L128.262 23.0644L128.259 23.057L128.256 23.0496L127.794 23.24ZM126.234 20.87L126.559 20.4903L126.55 20.483L126.234 20.87ZM123.714 20.03L123.682 20.529L123.691 20.5295L123.699 20.5298L123.714 20.03ZM123.234 20H122.734V20.4697L123.202 20.499L123.234 20ZM123.234 19.85L122.919 19.4616L122.734 19.6117V19.85H123.234ZM126.834 16.55L126.485 16.1913L126.48 16.1964L126.834 16.55ZM129.954 13.52L130.302 13.8787L131.186 13.02H129.954V13.52ZM125.004 13.52V13.02H124.803L124.658 13.1588L125.004 13.52ZM122.184 16.22L121.838 15.8588L121.83 15.8664L122.184 16.22ZM121.764 16.64L121.41 16.2864L121.41 16.2864L121.764 16.64ZM119.874 18.59L119.51 18.2473L119.505 18.2525L119.5 18.2578L119.874 18.59ZM118.434 20.45L118.248 20.9142L118.625 21.0649L118.85 20.7273L118.434 20.45ZM118.284 20.39L117.784 20.3733L117.772 20.724L118.098 20.8542L118.284 20.39ZM118.374 8H118.874V7.5H118.374V8ZM114.204 8V7.5H113.704V8H114.204ZM114.204 29.5H118.374V28.5H114.204V29.5ZM118.874 29V24.83H117.874V29H118.874ZM118.722 25.189L120.672 23.299L119.976 22.581L118.026 24.471L118.722 25.189ZM120.324 23.44H121.464V22.44H120.324V23.44ZM121.464 23.44C122.082 23.44 122.522 23.6176 122.833 23.9064L123.514 23.1736C122.985 22.6824 122.285 22.44 121.464 22.44V23.44ZM122.82 23.8936C123.181 24.2547 123.536 24.7899 123.815 25.5437L124.753 25.1963C124.432 24.3301 124.006 23.6653 123.527 23.1864L122.82 23.8936ZM123.814 25.5409L125.134 29.1709L126.074 28.8291L124.754 25.1991L123.814 25.5409ZM125.604 29.5H129.954V28.5H125.604V29.5ZM130.422 28.8244L128.262 23.0644L127.326 23.4156L129.486 29.1756L130.422 28.8244ZM128.256 23.0496C127.82 21.9911 127.272 21.1015 126.559 20.4904L125.908 21.2496C126.455 21.7185 126.927 22.4489 127.331 23.4304L128.256 23.0496ZM126.55 20.483C125.785 19.8569 124.83 19.5626 123.728 19.5302L123.699 20.5298C124.637 20.5574 125.362 20.8031 125.917 21.257L126.55 20.483ZM123.745 19.531L123.265 19.501L123.202 20.499L123.682 20.529L123.745 19.531ZM123.734 20V19.85H122.734V20H123.734ZM123.549 20.2384C124.677 19.3237 125.89 18.2008 127.187 16.9036L126.48 16.1964C125.197 17.4792 124.011 18.5763 122.919 19.4616L123.549 20.2384ZM127.182 16.9087L130.302 13.8787L129.605 13.1613L126.485 16.1913L127.182 16.9087ZM129.954 13.02H125.004V14.02H129.954V13.02ZM124.658 13.1588L121.838 15.8588L122.529 16.5812L125.349 13.8812L124.658 13.1588ZM121.83 15.8664L121.41 16.2864L122.117 16.9936L122.537 16.5736L121.83 15.8664ZM121.41 16.2864C120.626 17.0711 119.992 17.7349 119.51 18.2473L120.238 18.9327C120.715 18.4251 121.342 17.7689 122.117 16.9936L121.41 16.2864ZM119.5 18.2578C119.007 18.8123 118.512 19.4305 118.018 20.1726L118.85 20.7273C119.315 20.0295 119.78 19.4477 120.247 18.9222L119.5 18.2578ZM118.619 19.9858L118.469 19.9258L118.098 20.8542L118.248 20.9142L118.619 19.9858ZM118.783 20.4067C118.844 18.6012 118.874 16.8256 118.874 15.02H117.874C117.874 16.8143 117.844 18.5788 117.784 20.3733L118.783 20.4067ZM118.874 15.02V8H117.874V15.02H118.874ZM118.374 7.5H114.204V8.5H118.374V7.5ZM113.704 8V29H114.704V8H113.704ZM132.21 21.89L131.906 21.4928L131.904 21.4941L132.21 21.89ZM132.09 28.4L132.39 28L132.39 28L132.09 28.4ZM140.01 28.1L139.689 27.7158L139.683 27.7211L140.01 28.1ZM141.93 24.17V23.67H141.487L141.433 24.1091L141.93 24.17ZM142.08 24.17L142.579 24.1576L142.567 23.67H142.08V24.17ZM142.2 29L141.7 29.0124L141.712 29.5H142.2V29ZM146.28 29V29.5H146.78V29H146.28ZM144.42 14.75L144.759 14.3833L144.755 14.3792L144.42 14.75ZM134.49 13.94L134.713 14.3872L134.718 14.3849L134.49 13.94ZM131.79 16.34L131.362 16.0808L131.359 16.0865L131.79 16.34ZM130.8 19.67L130.3 19.645L130.274 20.17H130.8V19.67ZM135.03 19.67V20.17H135.487L135.528 19.7139L135.03 19.67ZM136.14 17.18L135.795 16.8179L135.794 16.8183L136.14 17.18ZM141.3 16.94L141.642 16.5759L141.631 16.5656L141.62 16.5559L141.3 16.94ZM140.94 20.24L140.738 19.7823L140.73 19.786L140.94 20.24ZM136.92 20.72L136.927 20.22H136.92V20.72ZM135.57 26.21L135.261 26.6032L135.261 26.6032L135.57 26.21ZM135.51 23.54L135.189 23.1559L135.18 23.1634L135.172 23.1714L135.51 23.54ZM137.04 23L137.015 22.5006L137.004 22.5011L136.994 22.5021L137.04 23ZM139.83 22.55L139.678 22.0735L139.668 22.0766L139.659 22.0801L139.83 22.55ZM141.3 21.62L140.903 21.3151L140.898 21.3222L140.893 21.3294L141.3 21.62ZM141.93 20.03V19.53H141.512L141.438 19.9406L141.93 20.03ZM142.08 20.03H142.58V19.53H142.08V20.03ZM139.71 26.09L139.471 25.6504L139.464 25.6541L139.458 25.6581L139.71 26.09ZM131.904 21.4941C130.721 22.4068 130.15 23.6686 130.15 25.19H131.15C131.15 23.9514 131.598 22.9932 132.515 22.2859L131.904 21.4941ZM130.15 25.19C130.15 26.7241 130.679 27.9672 131.79 28.8L132.39 28C131.58 27.3928 131.15 26.4759 131.15 25.19H130.15ZM131.79 28.8C132.86 29.6032 134.266 29.98 135.9 29.98V28.98C134.413 28.98 133.239 28.6368 132.39 28L131.79 28.8ZM135.9 29.98C137.644 29.98 139.148 29.5019 140.336 28.4789L139.683 27.7211C138.711 28.5581 137.455 28.98 135.9 28.98V29.98ZM140.33 28.4841C141.532 27.4824 142.205 26.0318 142.426 24.2309L141.433 24.1091C141.234 25.7282 140.647 26.9176 139.689 27.7159L140.33 28.4841ZM141.93 24.67H142.08V23.67H141.93V24.67ZM141.58 24.1824L141.7 29.0124L142.699 28.9876L142.579 24.1576L141.58 24.1824ZM142.2 29.5H146.28V28.5H142.2V29.5ZM146.78 29V19.1H145.78V29H146.78ZM146.78 19.1C146.78 17.1949 146.094 15.6206 144.759 14.3833L144.08 15.1167C145.205 16.1594 145.78 17.4651 145.78 19.1H146.78ZM144.755 14.3792C143.369 13.125 141.368 12.54 138.81 12.54V13.54C141.231 13.54 142.95 14.095 144.084 15.1208L144.755 14.3792ZM138.81 12.54C137.043 12.54 135.52 12.8497 134.261 13.4951L134.718 14.3849C135.799 13.8303 137.156 13.54 138.81 13.54V12.54ZM134.266 13.4928C132.992 14.1297 132.017 15.0006 131.362 16.0808L132.217 16.5992C132.762 15.6994 133.587 14.9503 134.713 14.3872L134.266 13.4928ZM131.359 16.0865C130.717 17.1771 130.364 18.3657 130.3 19.645L131.299 19.695C131.355 18.5743 131.662 17.5429 132.22 16.5935L131.359 16.0865ZM130.8 20.17H135.03V19.17H130.8V20.17ZM135.528 19.7139C135.609 18.7908 135.929 18.0725 136.485 17.5417L135.794 16.8183C135.03 17.5475 134.63 18.5092 134.531 19.6261L135.528 19.7139ZM136.484 17.5421C137 17.0511 137.765 16.75 138.84 16.75V15.75C137.574 15.75 136.539 16.1089 135.795 16.8179L136.484 17.5421ZM138.84 16.75C139.887 16.75 140.564 16.9778 140.979 17.3241L141.62 16.5559C140.955 16.0022 140.012 15.75 138.84 15.75V16.75ZM140.957 17.3041C141.391 17.713 141.58 18.1286 141.58 18.56H142.58C142.58 17.7914 142.228 17.127 141.642 16.5759L140.957 17.3041ZM141.58 18.56C141.58 18.8635 141.505 19.1 141.377 19.2876C141.249 19.4769 141.045 19.6475 140.738 19.7823L141.141 20.6977C141.584 20.5025 141.951 20.2231 142.204 19.8499C142.459 19.475 142.58 19.0365 142.58 18.56H141.58ZM140.73 19.786C140.063 20.0938 138.847 20.2501 136.927 20.2201L136.912 21.2199C138.832 21.2499 140.256 21.1062 141.149 20.694L140.73 19.786ZM136.92 20.22C134.776 20.22 133.054 20.6148 131.906 21.4928L132.513 22.2872C133.405 21.6052 134.863 21.22 136.92 21.22V20.22ZM135.878 25.8168C135.606 25.6031 135.47 25.3151 135.47 24.83H134.47C134.47 25.5449 134.693 26.1569 135.261 26.6032L135.878 25.8168ZM135.47 24.83C135.47 24.4184 135.599 24.1362 135.847 23.9086L135.172 23.1714C134.7 23.6038 134.47 24.1616 134.47 24.83H135.47ZM135.83 23.9241C136.086 23.7109 136.486 23.5524 137.085 23.4979L136.994 22.5021C136.274 22.5676 135.654 22.7691 135.189 23.1559L135.83 23.9241ZM137.065 23.4994C138.284 23.4384 139.272 23.2848 140 23.0199L139.659 22.0801C139.067 22.2952 138.195 22.4416 137.015 22.5006L137.065 23.4994ZM139.981 23.0265C140.69 22.8011 141.317 22.4558 141.706 21.9106L140.893 21.3294C140.682 21.6242 140.29 21.8789 139.678 22.0735L139.981 23.0265ZM141.696 21.9249C142.061 21.4508 142.293 20.8269 142.421 20.1194L141.438 19.9406C141.326 20.5531 141.139 21.0092 140.903 21.3151L141.696 21.9249ZM141.93 20.53H142.08V19.53H141.93V20.53ZM141.58 20.03V22.4H142.58V20.03H141.58ZM141.58 22.4C141.58 23.036 141.378 23.6342 140.998 24.2316L141.841 24.7684C142.301 24.0458 142.58 23.264 142.58 22.4H141.58ZM140.998 24.2316C140.623 24.8205 140.116 25.3012 139.471 25.6504L139.948 26.5296C140.743 26.0988 141.376 25.4995 141.841 24.7684L140.998 24.2316ZM139.458 25.6581C138.825 26.0271 138.135 26.19 137.37 26.19V27.19C138.284 27.19 139.154 26.9929 139.961 26.5219L139.458 25.6581ZM137.37 26.19C136.642 26.19 136.173 26.0481 135.878 25.8168L135.261 26.6032C135.806 27.0319 136.537 27.19 137.37 27.19V26.19ZM162.145 13.76L161.903 14.1978L161.903 14.1978L162.145 13.76ZM155.545 14.45L155.219 14.0711L155.213 14.0763L155.545 14.45ZM153.625 18.23V18.73H154.062L154.12 18.2967L153.625 18.23ZM153.445 18.23L152.945 18.2459L152.961 18.73H153.445V18.23ZM153.295 13.52L153.795 13.5041L153.779 13.02H153.295V13.52ZM149.155 13.52V13.02H148.655V13.52H149.155ZM149.155 29H148.655V29.5H149.155V29ZM153.445 29V29.5H153.945V29H153.445ZM154.435 17.6L154.053 17.277L154.053 17.277L154.435 17.6ZM159.805 17.42L160.182 17.0919L160.175 17.0832L160.167 17.0748L159.805 17.42ZM160.735 29H160.235V29.5H160.735V29ZM165.025 29V29.5H165.525V29H165.025ZM164.245 15.8L164.68 15.5534L164.674 15.5428L164.245 15.8ZM162.386 13.3222C161.439 12.7997 160.396 12.54 159.295 12.54V13.54C160.234 13.54 161.11 13.7603 161.903 14.1978L162.386 13.3222ZM159.295 12.54C157.73 12.54 156.385 13.0664 155.219 14.0711L155.871 14.8289C156.864 13.9736 157.98 13.54 159.295 13.54V12.54ZM155.213 14.0763C154.033 15.1252 153.353 16.4996 153.129 18.1633L154.12 18.2967C154.316 16.8404 154.897 15.6948 155.877 14.8237L155.213 14.0763ZM153.625 17.73H153.445V18.73H153.625V17.73ZM153.945 18.2141L153.795 13.5041L152.795 13.5359L152.945 18.2459L153.945 18.2141ZM153.295 13.02H149.155V14.02H153.295V13.02ZM148.655 13.52V29H149.655V13.52H148.655ZM149.155 29.5H153.445V28.5H149.155V29.5ZM153.945 29V20.9H152.945V29H153.945ZM153.945 20.9C153.945 19.562 154.258 18.5827 154.817 17.923L154.053 17.277C153.291 18.1773 152.945 19.418 152.945 20.9H153.945ZM154.817 17.923C155.371 17.2681 156.154 16.9 157.225 16.9V15.9C155.896 15.9 154.819 16.3719 154.053 17.277L154.817 17.923ZM157.225 16.9C158.186 16.9 158.919 17.2162 159.443 17.7652L160.167 17.0748C159.431 16.3038 158.424 15.9 157.225 15.9V16.9ZM159.428 17.7481C159.93 18.3264 160.235 19.16 160.235 20.3H161.235C161.235 18.98 160.879 17.8936 160.182 17.0919L159.428 17.7481ZM160.235 20.3V29H161.235V20.3H160.235ZM160.735 29.5H165.025V28.5H160.735V29.5ZM165.525 29V19.01H164.525V29H165.525ZM165.525 19.01C165.525 17.7062 165.238 16.5389 164.68 15.5535L163.81 16.0465C164.271 16.8611 164.525 17.8538 164.525 19.01H165.525ZM164.674 15.5428C164.089 14.5681 163.335 13.8454 162.386 13.3222L161.903 14.1978C162.695 14.6346 163.321 15.2319 163.816 16.0572L164.674 15.5428ZM177.397 16.16V16.66H177.897V16.16H177.397ZM177.397 13.52H177.897V13.02H177.397V13.52ZM172.927 13.52L172.427 13.5348L172.441 14.02H172.927V13.52ZM172.807 9.47L173.307 9.45519L173.292 8.97H172.807V9.47ZM168.757 9.47V8.97H168.257V9.47H168.757ZM168.757 13.52V14.02H169.257V13.52H168.757ZM166.327 13.52V13.02H165.827V13.52H166.327ZM166.327 16.16H165.827V16.66H166.327V16.16ZM168.757 16.16H169.257V15.66H168.757V16.16ZM170.017 28.22L170.326 27.8268L170.017 28.22ZM174.097 29.18L174.125 28.6808L174.111 28.68H174.097V29.18ZM177.367 29.03L177.404 29.5286L177.867 29.4943V29.03H177.367ZM177.367 25.76H177.867V25.2184L177.327 25.2616L177.367 25.76ZM173.467 25.49L173.154 25.8804L173.154 25.8804L173.467 25.49ZM173.017 16.16V15.66H172.517V16.16H173.017ZM177.897 16.16V13.52H176.897V16.16H177.897ZM177.397 13.02H172.927V14.02H177.397V13.02ZM173.427 13.5052L173.307 9.45519L172.307 9.48481L172.427 13.5348L173.427 13.5052ZM172.807 8.97H168.757V9.97H172.807V8.97ZM168.257 9.47V13.52H169.257V9.47H168.257ZM168.757 13.02H166.327V14.02H168.757V13.02ZM165.827 13.52V16.16H166.827V13.52H165.827ZM166.327 16.66H168.757V15.66H166.327V16.66ZM168.257 16.16V24.68H169.257V16.16H168.257ZM168.257 24.68C168.257 26.453 168.691 27.8139 169.708 28.6132L170.326 27.8268C169.663 27.3061 169.257 26.327 169.257 24.68H168.257ZM169.708 28.6132C170.685 29.3811 172.18 29.68 174.097 29.68V28.68C172.234 28.68 171.028 28.3789 170.326 27.8268L169.708 28.6132ZM174.069 29.6792C174.649 29.7114 175.796 29.6477 177.404 29.5286L177.33 28.5314C175.698 28.6523 174.625 28.7086 174.125 28.6808L174.069 29.6792ZM177.867 29.03V25.76H176.867V29.03H177.867ZM177.327 25.2616C176.588 25.3207 175.912 25.35 175.267 25.35V26.35C175.942 26.35 176.646 26.3193 177.407 26.2584L177.327 25.2616ZM175.267 25.35C174.836 25.35 174.496 25.321 174.24 25.2697C173.977 25.2171 173.84 25.1485 173.779 25.0996L173.154 25.8804C173.393 26.0715 173.707 26.1829 174.044 26.2503C174.387 26.319 174.798 26.35 175.267 26.35V25.35ZM173.779 25.0996C173.735 25.0639 173.666 24.9798 173.609 24.7864C173.552 24.5932 173.517 24.3223 173.517 23.96H172.517C172.517 24.3777 172.556 24.7518 172.65 25.0686C172.743 25.3852 172.899 25.6761 173.154 25.8804L173.779 25.0996ZM173.517 23.96V16.16H172.517V23.96H173.517ZM173.017 16.66H177.397V15.66H173.017V16.66Z" fill="#496D78"/>
</svg>
