<svg width="293" height="73" viewBox="0 0 293 73" fill="none" xmlns="http://www.w3.org/2000/svg">
<g style="mix-blend-mode:multiply">
<rect x="188" y="21" width="100" height="30" fill="#496D78" fill-opacity="0.5"/>
</g>
<path d="M191.896 48V26.1818H196.509V35.8018H196.797L204.648 26.1818H210.178L202.081 35.951L210.273 48H204.755L198.778 39.0298L196.509 41.7997V48H191.896ZM221.963 41.0327V31.6364H226.501V48H222.144V45.0277H221.974C221.604 45.9865 220.99 46.7571 220.131 47.3395C219.278 47.9219 218.238 48.2131 217.009 48.2131C215.915 48.2131 214.953 47.9645 214.122 47.4673C213.291 46.9702 212.641 46.2635 212.172 45.3473C211.711 44.4311 211.476 43.3338 211.469 42.0554V31.6364H216.008V41.2457C216.015 42.2116 216.274 42.9751 216.785 43.5362C217.297 44.0973 217.982 44.3778 218.841 44.3778C219.388 44.3778 219.9 44.2536 220.376 44.005C220.851 43.7493 221.235 43.3729 221.526 42.8757C221.824 42.3786 221.97 41.7642 221.963 41.0327ZM230.131 48V31.6364H234.457V34.5234H234.648C234.989 33.5646 235.558 32.8082 236.353 32.2543C237.148 31.7003 238.1 31.4233 239.208 31.4233C240.33 31.4233 241.286 31.7038 242.074 32.2649C242.862 32.8189 243.388 33.5717 243.651 34.5234H243.821C244.155 33.5859 244.759 32.8366 245.632 32.2756C246.513 31.7074 247.553 31.4233 248.754 31.4233C250.281 31.4233 251.52 31.9098 252.472 32.8828C253.43 33.8487 253.91 35.2195 253.91 36.995V48H249.382V37.8899C249.382 36.9808 249.141 36.299 248.658 35.8445C248.175 35.3899 247.571 35.1626 246.847 35.1626C246.023 35.1626 245.38 35.4254 244.918 35.951C244.457 36.4695 244.226 37.1548 244.226 38.0071V48H239.826V37.794C239.826 36.9915 239.595 36.3523 239.134 35.8764C238.679 35.4006 238.079 35.1626 237.333 35.1626C236.829 35.1626 236.374 35.2905 235.969 35.5462C235.572 35.7947 235.256 36.1463 235.021 36.6009C234.787 37.0483 234.67 37.5739 234.67 38.1776V48H230.131ZM262.161 48.3089C261.117 48.3089 260.186 48.1278 259.37 47.7656C258.553 47.3963 257.907 46.853 257.431 46.1357C256.962 45.4112 256.728 44.5092 256.728 43.4297C256.728 42.5206 256.895 41.7571 257.228 41.1392C257.562 40.5213 258.017 40.0241 258.592 39.6477C259.167 39.2713 259.821 38.9872 260.552 38.7955C261.291 38.6037 262.065 38.4688 262.875 38.3906C263.826 38.2912 264.593 38.1989 265.176 38.1136C265.758 38.0213 266.181 37.8864 266.444 37.7088C266.706 37.5312 266.838 37.2685 266.838 36.9205V36.8565C266.838 36.1818 266.625 35.6598 266.199 35.2905C265.779 34.9212 265.183 34.7365 264.409 34.7365C263.592 34.7365 262.942 34.9176 262.459 35.2798C261.976 35.6349 261.657 36.0824 261.5 36.6222L257.303 36.2812C257.516 35.2869 257.935 34.4276 258.56 33.7031C259.185 32.9716 259.991 32.4105 260.978 32.0199C261.973 31.6222 263.123 31.4233 264.43 31.4233C265.339 31.4233 266.209 31.5298 267.04 31.7429C267.878 31.956 268.62 32.2862 269.267 32.7337C269.92 33.1811 270.435 33.7564 270.811 34.4595C271.188 35.1555 271.376 35.9901 271.376 36.9631V48H267.072V45.7308H266.944C266.681 46.2422 266.33 46.6932 265.89 47.0838C265.449 47.4673 264.92 47.7692 264.302 47.9893C263.684 48.2024 262.971 48.3089 262.161 48.3089ZM263.461 45.1768C264.128 45.1768 264.718 45.0455 265.229 44.7827C265.74 44.5128 266.142 44.1506 266.433 43.696C266.724 43.2415 266.87 42.7266 266.87 42.1513V40.4148C266.728 40.5071 266.532 40.5923 266.284 40.6705C266.042 40.7415 265.769 40.8089 265.463 40.8729C265.158 40.9297 264.853 40.983 264.547 41.0327C264.242 41.0753 263.965 41.1143 263.716 41.1499C263.184 41.228 262.718 41.3523 262.321 41.5227C261.923 41.6932 261.614 41.924 261.394 42.2152C261.174 42.4993 261.064 42.8544 261.064 43.2805C261.064 43.8984 261.287 44.3707 261.735 44.6974C262.189 45.017 262.765 45.1768 263.461 45.1768ZM274.897 48V31.6364H279.297V34.4915H279.467C279.766 33.4759 280.266 32.7088 280.969 32.1903C281.673 31.6648 282.482 31.402 283.398 31.402C283.626 31.402 283.871 31.4162 284.134 31.4446C284.396 31.473 284.627 31.5121 284.826 31.5618V35.5888C284.613 35.5249 284.318 35.468 283.942 35.4183C283.565 35.3686 283.221 35.3438 282.908 35.3438C282.241 35.3438 281.644 35.4893 281.119 35.7805C280.6 36.0646 280.188 36.4624 279.883 36.9737C279.585 37.4851 279.435 38.0746 279.435 38.7422V48H274.897Z" fill="#496D78"/>
<g style="mix-blend-mode:multiply">
<rect x="113" y="21" width="67" height="30" fill="#496D78" fill-opacity="0.3"/>
</g>
<g style="mix-blend-mode:multiply">
<rect y="21" width="113" height="30" fill="#496D78" fill-opacity="0.5"/>
</g>
<g style="mix-blend-mode:multiply">
<circle cx="146.5" cy="36.5" r="36.5" fill="#496D78"/>
</g>
<path d="M1.89631 48V26.1818H6.50923V35.8018H6.79688L14.6484 26.1818H20.1776L12.081 35.951L20.2734 48H14.755L8.77841 39.0298L6.50923 41.7997V48H1.89631ZM22.4947 48V31.6364H26.8945V34.4915H27.065C27.3633 33.4759 27.864 32.7088 28.5671 32.1903C29.2702 31.6648 30.0799 31.402 30.9961 31.402C31.2234 31.402 31.4684 31.4162 31.7312 31.4446C31.994 31.473 32.2248 31.5121 32.4237 31.5618V35.5888C32.2106 35.5249 31.9158 35.468 31.5394 35.4183C31.163 35.3686 30.8185 35.3438 30.506 35.3438C29.8384 35.3438 29.2418 35.4893 28.7163 35.7805C28.1978 36.0646 27.7859 36.4624 27.4805 36.9737C27.1822 37.4851 27.033 38.0746 27.033 38.7422V48H22.4947ZM34.7701 48V31.6364H39.3084V48H34.7701ZM37.0499 29.527C36.3752 29.527 35.7963 29.3033 35.3134 28.8558C34.8375 28.4013 34.5996 27.858 34.5996 27.2259C34.5996 26.6009 34.8375 26.0646 35.3134 25.6172C35.7963 25.1626 36.3752 24.9354 37.0499 24.9354C37.7246 24.9354 38.2999 25.1626 38.7757 25.6172C39.2587 26.0646 39.5002 26.6009 39.5002 27.2259C39.5002 27.858 39.2587 28.4013 38.7757 28.8558C38.2999 29.3033 37.7246 29.527 37.0499 29.527ZM56.5589 36.3026L52.4041 36.5582C52.3331 36.2031 52.1804 35.8835 51.946 35.5994C51.7116 35.3082 51.4027 35.0774 51.0192 34.907C50.6428 34.7294 50.1918 34.6406 49.6662 34.6406C48.9631 34.6406 48.37 34.7898 47.8871 35.0881C47.4041 35.3793 47.1626 35.7699 47.1626 36.2599C47.1626 36.6506 47.3189 36.9808 47.6314 37.2507C47.9439 37.5206 48.4801 37.7372 49.2401 37.9006L52.2017 38.4972C53.7926 38.8239 54.9787 39.3494 55.7599 40.0739C56.5412 40.7983 56.9318 41.75 56.9318 42.929C56.9318 44.0014 56.6158 44.9425 55.9837 45.7521C55.3587 46.5618 54.4993 47.1939 53.4055 47.6484C52.3189 48.0959 51.0653 48.3196 49.6449 48.3196C47.4787 48.3196 45.7528 47.8686 44.4673 46.9666C43.1889 46.0575 42.4396 44.8217 42.2195 43.2592L46.6832 43.0249C46.8182 43.6854 47.1449 44.1896 47.6634 44.5376C48.1818 44.8786 48.8459 45.049 49.6555 45.049C50.451 45.049 51.0902 44.8963 51.5732 44.5909C52.0632 44.2784 52.3118 43.8771 52.3189 43.3871C52.3118 42.9751 52.1378 42.6378 51.7969 42.375C51.456 42.1051 50.9304 41.8991 50.2202 41.7571L47.3864 41.1925C45.7884 40.8729 44.5987 40.3189 43.8175 39.5305C43.0433 38.7422 42.6562 37.7372 42.6562 36.5156C42.6562 35.4645 42.9403 34.5589 43.5085 33.799C44.0838 33.0391 44.8899 32.4531 45.9268 32.0412C46.9709 31.6293 48.1925 31.4233 49.5916 31.4233C51.6584 31.4233 53.2848 31.8601 54.4709 32.7337C55.6641 33.6072 56.3601 34.7969 56.5589 36.3026ZM64.3279 38.5398V48H59.7896V26.1818H64.2001V34.5234H64.3919C64.7612 33.5575 65.3578 32.8011 66.1816 32.2543C67.0055 31.7003 68.0389 31.4233 69.2818 31.4233C70.4181 31.4233 71.4089 31.6719 72.2541 32.169C73.1064 32.6591 73.7669 33.3658 74.2356 34.2891C74.7115 35.2053 74.9458 36.3026 74.9387 37.581V48H70.4004V38.3906C70.4075 37.3821 70.1518 36.5973 69.6333 36.0362C69.122 35.4751 68.4047 35.1946 67.4814 35.1946C66.8635 35.1946 66.3166 35.326 65.8407 35.5888C65.372 35.8516 65.0027 36.2351 64.7328 36.7393C64.47 37.2365 64.335 37.8366 64.3279 38.5398ZM83.0487 38.5398V48H78.5103V31.6364H82.8356V34.5234H83.0273C83.3896 33.5717 83.9968 32.8189 84.8491 32.2649C85.7013 31.7038 86.7347 31.4233 87.9492 31.4233C89.0856 31.4233 90.0763 31.6719 90.9215 32.169C91.7667 32.6662 92.4237 33.3764 92.8924 34.2997C93.3612 35.2159 93.5955 36.3097 93.5955 37.581V48H89.0572V38.3906C89.0643 37.3892 88.8086 36.608 88.2901 36.0469C87.7717 35.4787 87.0579 35.1946 86.1488 35.1946C85.538 35.1946 84.9982 35.326 84.5295 35.5888C84.0678 35.8516 83.7056 36.2351 83.4428 36.7393C83.1871 37.2365 83.0558 37.8366 83.0487 38.5398ZM101.839 48.3089C100.795 48.3089 99.8642 48.1278 99.0474 47.7656C98.2306 47.3963 97.5843 46.853 97.1085 46.1357C96.6397 45.4112 96.4054 44.5092 96.4054 43.4297C96.4054 42.5206 96.5723 41.7571 96.9061 41.1392C97.2399 40.5213 97.6944 40.0241 98.2697 39.6477C98.845 39.2713 99.4984 38.9872 100.23 38.7955C100.969 38.6037 101.743 38.4688 102.552 38.3906C103.504 38.2912 104.271 38.1989 104.854 38.1136C105.436 38.0213 105.858 37.8864 106.121 37.7088C106.384 37.5312 106.515 37.2685 106.515 36.9205V36.8565C106.515 36.1818 106.302 35.6598 105.876 35.2905C105.457 34.9212 104.861 34.7365 104.086 34.7365C103.27 34.7365 102.62 34.9176 102.137 35.2798C101.654 35.6349 101.334 36.0824 101.178 36.6222L96.9806 36.2812C97.1937 35.2869 97.6127 34.4276 98.2377 33.7031C98.8627 32.9716 99.6689 32.4105 100.656 32.0199C101.65 31.6222 102.801 31.4233 104.108 31.4233C105.017 31.4233 105.887 31.5298 106.718 31.7429C107.556 31.956 108.298 32.2862 108.944 32.7337C109.598 33.1811 110.113 33.7564 110.489 34.4595C110.866 35.1555 111.054 35.9901 111.054 36.9631V48H106.75V45.7308H106.622C106.359 46.2422 106.008 46.6932 105.567 47.0838C105.127 47.4673 104.598 47.7692 103.98 47.9893C103.362 48.2024 102.648 48.3089 101.839 48.3089ZM103.138 45.1768C103.806 45.1768 104.395 45.0455 104.907 44.7827C105.418 44.5128 105.819 44.1506 106.111 43.696C106.402 43.2415 106.547 42.7266 106.547 42.1513V40.4148C106.405 40.5071 106.21 40.5923 105.961 40.6705C105.72 40.7415 105.447 40.8089 105.141 40.8729C104.836 40.9297 104.53 40.983 104.225 41.0327C103.92 41.0753 103.643 41.1143 103.394 41.1499C102.861 41.228 102.396 41.3523 101.998 41.5227C101.601 41.6932 101.292 41.924 101.072 42.2152C100.851 42.4993 100.741 42.8544 100.741 43.2805C100.741 43.8984 100.965 44.3707 101.412 44.6974C101.867 45.017 102.442 45.1768 103.138 45.1768Z" fill="#496D78"/>
<path d="M1.89631 48H1.39631V48.5H1.89631V48ZM1.89631 26.1818V25.6818H1.39631V26.1818H1.89631ZM6.50923 26.1818H7.00923V25.6818H6.50923V26.1818ZM6.50923 35.8018H6.00923V36.3018H6.50923V35.8018ZM6.79688 35.8018V36.3018H7.03418L7.18424 36.118L6.79688 35.8018ZM14.6484 26.1818V25.6818H14.4111L14.2611 25.8657L14.6484 26.1818ZM20.1776 26.1818L20.5625 26.5009L21.2414 25.6818H20.1776V26.1818ZM12.081 35.951L11.696 35.6319L11.4562 35.9213L11.6675 36.2321L12.081 35.951ZM20.2734 48V48.5H21.218L20.6869 47.7189L20.2734 48ZM14.755 48L14.3389 48.2772L14.4873 48.5H14.755V48ZM8.77841 39.0298L9.19451 38.7526L8.81985 38.1903L8.39163 38.713L8.77841 39.0298ZM6.50923 41.7997L6.12245 41.4829L6.00923 41.6211V41.7997H6.50923ZM6.50923 48V48.5H7.00923V48H6.50923ZM2.39631 48V26.1818H1.39631V48H2.39631ZM1.89631 26.6818H6.50923V25.6818H1.89631V26.6818ZM6.00923 26.1818V35.8018H7.00923V26.1818H6.00923ZM6.50923 36.3018H6.79688V35.3018H6.50923V36.3018ZM7.18424 36.118L15.0358 26.498L14.2611 25.8657L6.40951 35.4857L7.18424 36.118ZM14.6484 26.6818H20.1776V25.6818H14.6484V26.6818ZM19.7926 25.8628L11.696 35.6319L12.4659 36.2701L20.5625 26.5009L19.7926 25.8628ZM11.6675 36.2321L19.86 48.2811L20.6869 47.7189L12.4944 35.6699L11.6675 36.2321ZM20.2734 47.5H14.755V48.5H20.2734V47.5ZM15.1711 47.7228L9.19451 38.7526L8.36231 39.3071L14.3389 48.2772L15.1711 47.7228ZM8.39163 38.713L6.12245 41.4829L6.89601 42.1166L9.16519 39.3467L8.39163 38.713ZM6.00923 41.7997V48H7.00923V41.7997H6.00923ZM6.50923 47.5H1.89631V48.5H6.50923V47.5ZM22.4947 48H21.9947V48.5H22.4947V48ZM22.4947 31.6364V31.1364H21.9947V31.6364H22.4947ZM26.8945 31.6364H27.3945V31.1364H26.8945V31.6364ZM26.8945 34.4915H26.3945V34.9915H26.8945V34.4915ZM27.065 34.4915V34.9915H27.4393L27.5447 34.6324L27.065 34.4915ZM28.5671 32.1903L28.8639 32.5928L28.8665 32.5908L28.5671 32.1903ZM31.7312 31.4446L31.7849 30.9475L31.7849 30.9475L31.7312 31.4446ZM32.4237 31.5618H32.9237V31.1714L32.5449 31.0767L32.4237 31.5618ZM32.4237 35.5888L32.28 36.0677L32.9237 36.2608V35.5888H32.4237ZM28.7163 35.7805L28.9565 36.219L28.9586 36.2179L28.7163 35.7805ZM27.4805 36.9737L27.0512 36.7173L27.0486 36.7218L27.4805 36.9737ZM27.033 48V48.5H27.533V48H27.033ZM22.9947 48V31.6364H21.9947V48H22.9947ZM22.4947 32.1364H26.8945V31.1364H22.4947V32.1364ZM26.3945 31.6364V34.4915H27.3945V31.6364H26.3945ZM26.8945 34.9915H27.065V33.9915H26.8945V34.9915ZM27.5447 34.6324C27.8189 33.6988 28.266 33.0336 28.8639 32.5928L28.2704 31.7879C27.462 32.384 26.9076 33.2529 26.5852 34.3506L27.5447 34.6324ZM28.8665 32.5908C29.4792 32.1328 30.1828 31.902 30.9961 31.902V30.902C29.977 30.902 29.0613 31.1967 28.2678 31.7899L28.8665 32.5908ZM30.9961 31.902C31.2028 31.902 31.4297 31.9149 31.6774 31.9417L31.7849 30.9475C31.5071 30.9175 31.2439 30.902 30.9961 30.902V31.902ZM31.6774 31.9417C31.9236 31.9683 32.131 32.004 32.3024 32.0469L32.5449 31.0767C32.3186 31.0201 32.0643 30.9777 31.7849 30.9475L31.6774 31.9417ZM31.9237 31.5618V35.5888H32.9237V31.5618H31.9237ZM32.5673 35.1099C32.317 35.0348 31.9921 34.9738 31.6049 34.9226L31.4739 35.914C31.8396 35.9623 32.1042 36.0149 32.28 36.0677L32.5673 35.1099ZM31.6049 34.9226C31.2112 34.8706 30.8445 34.8438 30.506 34.8438V35.8438C30.7926 35.8438 31.1148 35.8666 31.4739 35.914L31.6049 34.9226ZM30.506 34.8438C29.7633 34.8438 29.0816 35.0065 28.4739 35.3432L28.9586 36.2179C29.402 35.9722 29.9136 35.8438 30.506 35.8438V34.8438ZM28.476 35.3421C27.8788 35.6693 27.4019 36.1301 27.0512 36.7174L27.9097 37.2301C28.1698 36.7946 28.5168 36.46 28.9565 36.219L28.476 35.3421ZM27.0486 36.7218C26.7002 37.319 26.533 37.9976 26.533 38.7422H27.533C27.533 38.1516 27.6641 37.6512 27.9124 37.2257L27.0486 36.7218ZM26.533 38.7422V48H27.533V38.7422H26.533ZM27.033 47.5H22.4947V48.5H27.033V47.5ZM34.7701 48H34.2701V48.5H34.7701V48ZM34.7701 31.6364V31.1364H34.2701V31.6364H34.7701ZM39.3084 31.6364H39.8084V31.1364H39.3084V31.6364ZM39.3084 48V48.5H39.8084V48H39.3084ZM35.3134 28.8558L34.968 29.2174L34.9736 29.2226L35.3134 28.8558ZM35.3134 25.6172L35.6559 25.9814L35.6561 25.9813L35.3134 25.6172ZM38.7757 25.6172L38.4303 25.9788L38.4359 25.984L38.7757 25.6172ZM38.7757 28.8558L39.1183 29.2201L39.1184 29.2199L38.7757 28.8558ZM35.2701 48V31.6364H34.2701V48H35.2701ZM34.7701 32.1364H39.3084V31.1364H34.7701V32.1364ZM38.8084 31.6364V48H39.8084V31.6364H38.8084ZM39.3084 47.5H34.7701V48.5H39.3084V47.5ZM37.0499 29.027C36.4977 29.027 36.0412 28.8485 35.6532 28.489L34.9736 29.2226C35.5515 29.758 36.2526 30.027 37.0499 30.027V29.027ZM35.6588 28.4943C35.2771 28.1297 35.0996 27.7152 35.0996 27.2259H34.0996C34.0996 28.0007 34.398 28.6728 34.968 29.2174L35.6588 28.4943ZM35.0996 27.2259C35.0996 26.7456 35.2754 26.3392 35.6559 25.9814L34.9709 25.2529C34.3996 25.7901 34.0996 26.4561 34.0996 27.2259H35.0996ZM35.6561 25.9813C36.0445 25.6157 36.5001 25.4354 37.0499 25.4354V24.4354C36.2503 24.4354 35.5482 24.7096 34.9707 25.2531L35.6561 25.9813ZM37.0499 25.4354C37.5996 25.4354 38.0501 25.6155 38.4304 25.9787L39.1211 25.2556C38.5497 24.7098 37.8496 24.4354 37.0499 24.4354V25.4354ZM38.4359 25.984C38.8229 26.3425 39.0002 26.7482 39.0002 27.2259H40.0002C40.0002 26.4535 39.6945 25.7868 39.1156 25.2504L38.4359 25.984ZM39.0002 27.2259C39.0002 27.7126 38.8212 28.1264 38.4331 28.4917L39.1184 29.2199C39.6962 28.6761 40.0002 28.0033 40.0002 27.2259H39.0002ZM38.4332 28.4916C38.0534 28.8487 37.602 29.027 37.0499 29.027V30.027C37.8472 30.027 38.5463 29.7579 39.1183 29.2201L38.4332 28.4916ZM56.5589 36.3026L56.5897 36.8016L57.1249 36.7687L57.0546 36.2371L56.5589 36.3026ZM52.4041 36.5582L51.9138 36.6563L51.9994 37.0841L52.4348 37.0573L52.4041 36.5582ZM51.946 35.5994L51.5565 35.913L51.5603 35.9176L51.946 35.5994ZM51.0192 34.907L50.8058 35.3593L50.8161 35.3639L51.0192 34.907ZM47.8871 35.0881L48.1453 35.5163L48.1498 35.5135L47.8871 35.0881ZM47.6314 37.2507L47.3046 37.6291L47.3046 37.6291L47.6314 37.2507ZM49.2401 37.9006L49.135 38.3894L49.1413 38.3907L49.2401 37.9006ZM52.2017 38.4972L52.3023 38.0074L52.3004 38.007L52.2017 38.4972ZM55.7599 40.0739L55.42 40.4405L55.42 40.4405L55.7599 40.0739ZM55.9837 45.7521L55.5895 45.4444L55.5879 45.4466L55.9837 45.7521ZM53.4055 47.6484L53.5959 48.1108L53.5974 48.1102L53.4055 47.6484ZM44.4673 46.9666L44.1776 47.3741L44.1801 47.3759L44.4673 46.9666ZM42.2195 43.2592L42.1932 42.7599L41.6482 42.7885L41.7244 43.329L42.2195 43.2592ZM46.6832 43.0249L47.1731 42.9248L47.0869 42.503L46.657 42.5255L46.6832 43.0249ZM47.6634 44.5376L47.3847 44.9528L47.3886 44.9554L47.6634 44.5376ZM51.5732 44.5909L51.8404 45.0135L51.842 45.0125L51.5732 44.5909ZM52.3189 43.3871L52.8188 43.3943L52.819 43.3864L52.8188 43.3785L52.3189 43.3871ZM51.7969 42.375L51.4865 42.7671L51.4916 42.771L51.7969 42.375ZM50.2202 41.7571L50.3182 41.2668L50.3179 41.2667L50.2202 41.7571ZM47.3864 41.1925L47.2883 41.6828L47.2887 41.6828L47.3864 41.1925ZM43.8175 39.5305L43.4607 39.8809L43.4623 39.8825L43.8175 39.5305ZM43.5085 33.799L43.1099 33.4972L43.1081 33.4996L43.5085 33.799ZM45.9268 32.0412L45.7433 31.5761L45.7422 31.5765L45.9268 32.0412ZM54.4709 32.7337L54.1744 33.1363L54.1755 33.1371L54.4709 32.7337ZM56.5282 35.8035L52.3734 36.0592L52.4348 37.0573L56.5897 36.8016L56.5282 35.8035ZM52.8944 36.4602C52.8069 36.0228 52.6176 35.6278 52.3317 35.2812L51.5603 35.9176C51.7431 36.1392 51.8593 36.3835 51.9138 36.6563L52.8944 36.4602ZM52.3355 35.2859C52.0455 34.9255 51.6694 34.6488 51.2222 34.4501L50.8161 35.3639C51.136 35.506 51.3778 35.691 51.5565 35.9129L52.3355 35.2859ZM51.2325 34.4547C50.7742 34.2386 50.2467 34.1406 49.6662 34.1406V35.1406C50.1368 35.1406 50.5113 35.2202 50.8059 35.3592L51.2325 34.4547ZM49.6662 34.1406C48.8923 34.1406 48.2031 34.3052 47.6243 34.6627L48.1498 35.5135C48.5369 35.2744 49.0338 35.1406 49.6662 35.1406V34.1406ZM47.6289 34.6599C47.0227 35.0254 46.6626 35.5654 46.6626 36.2599H47.6626C47.6626 35.9744 47.7855 35.7332 48.1452 35.5163L47.6289 34.6599ZM46.6626 36.2599C46.6626 36.8051 46.8892 37.2704 47.3046 37.6291L47.9582 36.8723C47.7485 36.6912 47.6626 36.4961 47.6626 36.2599H46.6626ZM47.3046 37.6291C47.715 37.9836 48.3536 38.2214 49.135 38.3894L49.3451 37.4117C48.6067 37.253 48.1728 37.0576 47.9582 36.8723L47.3046 37.6291ZM49.1413 38.3907L52.103 38.9873L52.3004 38.007L49.3388 37.4104L49.1413 38.3907ZM52.1011 38.9869C53.6459 39.3042 54.7321 39.8027 55.42 40.4405L56.0999 39.7072C55.2253 38.8962 53.9394 38.3436 52.3023 38.0074L52.1011 38.9869ZM55.42 40.4405C56.0877 41.0597 56.4318 41.8727 56.4318 42.929H57.4318C57.4318 41.6273 56.9947 40.5369 56.0999 39.7072L55.42 40.4405ZM56.4318 42.929C56.4318 43.8952 56.1499 44.7267 55.5895 45.4444L56.3778 46.0598C57.0817 45.1582 57.4318 44.1076 57.4318 42.929H56.4318ZM55.5879 45.4466C55.024 46.1771 54.2398 46.7603 53.2137 47.1867L53.5974 48.1102C54.7587 47.6275 55.6933 46.9465 56.3795 46.0577L55.5879 45.4466ZM53.2152 47.1861C52.2001 47.6041 51.0133 47.8196 49.6449 47.8196V48.8196C51.1173 48.8196 52.4377 48.5877 53.5959 48.1108L53.2152 47.1861ZM49.6449 47.8196C47.5435 47.8196 45.9294 47.3817 44.7545 46.5573L44.1801 47.3759C45.5763 48.3555 47.4139 48.8196 49.6449 48.8196V47.8196ZM44.7571 46.5591C43.5914 45.7302 42.9157 44.6169 42.7146 43.1895L41.7244 43.329C41.9636 45.0266 42.7865 46.3849 44.1776 47.3741L44.7571 46.5591ZM42.2457 43.7585L46.7095 43.5242L46.657 42.5255L42.1932 42.7599L42.2457 43.7585ZM46.1934 43.1249C46.3523 43.9028 46.748 44.5254 47.3847 44.9528L47.942 44.1225C47.5418 43.8539 47.2841 43.4679 47.1731 42.9248L46.1934 43.1249ZM47.3886 44.9554C48.0102 45.3641 48.7776 45.549 49.6555 45.549V44.549C48.9142 44.549 48.3535 44.393 47.9381 44.1199L47.3886 44.9554ZM49.6555 45.549C50.51 45.549 51.2519 45.3856 51.8404 45.0135L51.3059 44.1683C50.9285 44.407 50.392 44.549 49.6555 44.549V45.549ZM51.842 45.0125C52.4434 44.629 52.8088 44.0858 52.8188 43.3943L51.8189 43.3798C51.8148 43.6685 51.683 43.9278 51.3043 44.1693L51.842 45.0125ZM52.8188 43.3785C52.809 42.8068 52.5572 42.3298 52.1021 41.979L51.4916 42.771C51.7184 42.9458 51.8146 43.1435 51.819 43.3957L52.8188 43.3785ZM52.1072 41.983C51.6761 41.6417 51.0606 41.4153 50.3182 41.2668L50.1221 42.2474C50.8002 42.383 51.2358 42.5686 51.4865 42.767L52.1072 41.983ZM50.3179 41.2667L47.4841 40.7021L47.2887 41.6828L50.1225 42.2475L50.3179 41.2667ZM47.4844 40.7022C45.9407 40.3934 44.8582 39.8704 44.1726 39.1786L43.4623 39.8825C44.3393 40.7674 45.636 41.3523 47.2883 41.6828L47.4844 40.7022ZM44.1742 39.1802C43.502 38.4956 43.1562 37.6213 43.1562 36.5156H42.1562C42.1562 37.8531 42.5847 38.9887 43.4607 39.8809L44.1742 39.1802ZM43.1562 36.5156C43.1562 35.5602 43.4124 34.7626 43.909 34.0984L43.1081 33.4996C42.4683 34.3553 42.1562 35.3688 42.1562 36.5156H43.1562ZM43.9072 34.1008C44.4185 33.4253 45.1447 32.8899 46.1114 32.5059L45.7422 31.5765C44.6351 32.0163 43.7491 32.6528 43.1099 33.4972L43.9072 34.1008ZM46.1104 32.5063C47.0835 32.1223 48.2404 31.9233 49.5916 31.9233V30.9233C48.1446 30.9233 46.8583 31.1362 45.7433 31.5761L46.1104 32.5063ZM49.5916 31.9233C51.5935 31.9233 53.1027 32.3469 54.1744 33.1363L54.7674 32.3311C53.4669 31.3732 51.7232 30.9233 49.5916 30.9233V31.9233ZM54.1755 33.1371C55.2553 33.9276 55.8817 34.9935 56.0633 36.368L57.0546 36.2371C56.8385 34.6003 56.0728 33.2868 54.7663 32.3302L54.1755 33.1371ZM64.3279 38.5398L63.8279 38.5347V38.5398H64.3279ZM64.3279 48V48.5H64.8279V48H64.3279ZM59.7896 48H59.2896V48.5H59.7896V48ZM59.7896 26.1818V25.6818H59.2896V26.1818H59.7896ZM64.2001 26.1818H64.7001V25.6818H64.2001V26.1818ZM64.2001 34.5234H63.7001V35.0234H64.2001V34.5234ZM64.3919 34.5234V35.0234H64.736L64.8589 34.702L64.3919 34.5234ZM66.1816 32.2543L66.4582 32.6708L66.4606 32.6692L66.1816 32.2543ZM72.2541 32.169L72.0006 32.6L72.0048 32.6025L72.2541 32.169ZM74.2356 34.2891L73.7898 34.5154L73.7919 34.5195L74.2356 34.2891ZM74.9387 37.581L74.4387 37.5782V37.581H74.9387ZM74.9387 48V48.5H75.4387V48H74.9387ZM70.4004 48H69.9004V48.5H70.4004V48ZM70.4004 38.3906L69.9004 38.3871V38.3906H70.4004ZM69.6333 36.0362L69.2638 36.373L69.2661 36.3756L69.6333 36.0362ZM65.8407 35.5888L65.599 35.1511L65.5962 35.1526L65.8407 35.5888ZM64.7328 36.7393L64.2919 36.5034L64.2907 36.5057L64.7328 36.7393ZM63.8279 38.5398V48H64.8279V38.5398H63.8279ZM64.3279 47.5H59.7896V48.5H64.3279V47.5ZM60.2896 48V26.1818H59.2896V48H60.2896ZM59.7896 26.6818H64.2001V25.6818H59.7896V26.6818ZM63.7001 26.1818V34.5234H64.7001V26.1818H63.7001ZM64.2001 35.0234H64.3919V34.0234H64.2001V35.0234ZM64.8589 34.702C65.1928 33.8286 65.7252 33.1574 66.4582 32.6708L65.9051 31.8377C64.9904 32.4449 64.3295 33.2865 63.9248 34.3449L64.8589 34.702ZM66.4606 32.6692C67.1834 32.1832 68.1132 31.9233 69.2818 31.9233V30.9233C67.9646 30.9233 66.8276 31.2174 65.9026 31.8393L66.4606 32.6692ZM69.2818 31.9233C70.3434 31.9233 71.2437 32.1548 72.0006 32.6L72.5076 31.7381C71.5741 31.1889 70.4929 30.9233 69.2818 30.9233V31.9233ZM72.0048 32.6025C72.7682 33.0414 73.3626 33.6739 73.7898 34.5154L74.6815 34.0627C74.1712 33.0576 73.4445 32.2767 72.5033 31.7356L72.0048 32.6025ZM73.7919 34.5195C74.2225 35.3485 74.4455 36.3619 74.4388 37.5782L75.4387 37.5837C75.4462 36.2432 75.2005 35.062 74.6793 34.0586L73.7919 34.5195ZM74.4387 37.581V48H75.4387V37.581H74.4387ZM74.9387 47.5H70.4004V48.5H74.9387V47.5ZM70.9004 48V38.3906H69.9004V48H70.9004ZM70.9004 38.3941C70.9081 37.3004 70.6299 36.3779 70.0006 35.6969L69.2661 36.3756C69.6737 36.8167 69.9069 37.4638 69.9004 38.3871L70.9004 38.3941ZM70.0029 35.6994C69.3767 35.0123 68.5124 34.6946 67.4814 34.6946V35.6946C68.2969 35.6946 68.8673 35.938 69.2638 36.373L70.0029 35.6994ZM67.4814 34.6946C66.7906 34.6946 66.1585 34.8421 65.599 35.1511L66.0824 36.0265C66.4747 35.8099 66.9363 35.6946 67.4814 35.6946V34.6946ZM65.5962 35.1526C65.0389 35.4651 64.6038 35.9207 64.2919 36.5034L65.1736 36.9753C65.4015 36.5495 65.7051 36.238 66.0852 36.0249L65.5962 35.1526ZM64.2907 36.5057C63.9825 37.0888 63.8357 37.7714 63.828 38.5347L64.8279 38.5448C64.8344 37.9019 64.9575 37.3842 65.1748 36.973L64.2907 36.5057ZM83.0487 38.5398L82.5487 38.5347V38.5398H83.0487ZM83.0487 48V48.5H83.5487V48H83.0487ZM78.5103 48H78.0103V48.5H78.5103V48ZM78.5103 31.6364V31.1364H78.0103V31.6364H78.5103ZM82.8356 31.6364H83.3356V31.1364H82.8356V31.6364ZM82.8356 34.5234H82.3356V35.0234H82.8356V34.5234ZM83.0273 34.5234V35.0234H83.372L83.4946 34.7013L83.0273 34.5234ZM84.8491 32.2649L85.1216 32.6841L85.124 32.6825L84.8491 32.2649ZM90.9215 32.169L91.175 31.7381L91.175 31.7381L90.9215 32.169ZM92.8924 34.2997L92.4466 34.5261L92.4473 34.5275L92.8924 34.2997ZM93.5955 48V48.5H94.0955V48H93.5955ZM89.0572 48H88.5572V48.5H89.0572V48ZM89.0572 38.3906L88.5572 38.3871V38.3906H89.0572ZM88.2901 36.0469L87.9208 36.3839L87.9229 36.3862L88.2901 36.0469ZM84.5295 35.5888L84.285 35.1526L84.2821 35.1542L84.5295 35.5888ZM83.4428 36.7393L82.9994 36.5083L82.9982 36.5107L83.4428 36.7393ZM82.5487 38.5398V48H83.5487V38.5398H82.5487ZM83.0487 47.5H78.5103V48.5H83.0487V47.5ZM79.0103 48V31.6364H78.0103V48H79.0103ZM78.5103 32.1364H82.8356V31.1364H78.5103V32.1364ZM82.3356 31.6364V34.5234H83.3356V31.6364H82.3356ZM82.8356 35.0234H83.0273V34.0234H82.8356V35.0234ZM83.4946 34.7013C83.8192 33.8485 84.3583 33.1802 85.1216 32.6841L84.5766 31.8457C83.6353 32.4576 82.9599 33.295 82.56 34.3456L83.4946 34.7013ZM85.124 32.6825C85.8802 32.1847 86.8136 31.9233 87.9492 31.9233V30.9233C86.6559 30.9233 85.5225 31.223 84.5741 31.8473L85.124 32.6825ZM87.9492 31.9233C89.0108 31.9233 89.9112 32.1548 90.668 32.6L91.175 31.7381C90.2415 31.1889 89.1604 30.9233 87.9492 30.9233V31.9233ZM90.668 32.6C91.4261 33.046 92.0185 33.6829 92.4466 34.5261L93.3382 34.0734C92.8288 33.0699 92.1072 32.2864 91.175 31.7381L90.668 32.6ZM92.4473 34.5275C92.8725 35.3585 93.0955 36.3705 93.0955 37.581H94.0955C94.0955 36.2488 93.8498 35.0733 93.3375 34.072L92.4473 34.5275ZM93.0955 37.581V48H94.0955V37.581H93.0955ZM93.5955 47.5H89.0572V48.5H93.5955V47.5ZM89.5572 48V38.3906H88.5572V48H89.5572ZM89.5572 38.3942C89.5649 37.3064 89.2861 36.388 88.6574 35.7075L87.9229 36.3862C88.3311 36.8279 88.5637 37.472 88.5572 38.3871L89.5572 38.3942ZM88.6595 35.7098C88.029 35.0189 87.1705 34.6946 86.1488 34.6946V35.6946C86.9452 35.6946 87.5144 35.9385 87.9208 36.3839L88.6595 35.7098ZM86.1488 34.6946C85.4642 34.6946 84.8381 34.8425 84.285 35.1526L84.774 36.0249C85.1583 35.8095 85.6117 35.6946 86.1488 35.6946V34.6946ZM84.2821 35.1542C83.731 35.468 83.3034 35.925 82.9994 36.5083L83.8862 36.9704C84.1079 36.5451 84.4047 36.2351 84.7768 36.0233L84.2821 35.1542ZM82.9982 36.5107C82.6989 37.0926 82.5564 37.7733 82.5487 38.5347L83.5486 38.5448C83.5551 37.9 83.6754 37.3804 83.8875 36.968L82.9982 36.5107ZM99.0474 47.7656L98.8414 48.2212L98.8447 48.2227L99.0474 47.7656ZM97.1085 46.1357L96.6887 46.4073L96.6918 46.4121L97.1085 46.1357ZM96.9061 41.1392L96.4662 40.9016L96.4662 40.9016L96.9061 41.1392ZM98.2697 39.6477L97.9959 39.2293L97.9959 39.2293L98.2697 39.6477ZM100.23 38.7955L100.104 38.3115L100.103 38.3118L100.23 38.7955ZM102.552 38.3906L102.6 38.8883L102.604 38.8879L102.552 38.3906ZM104.854 38.1136L104.926 38.6084L104.932 38.6075L104.854 38.1136ZM106.121 37.7088L105.841 37.2945L105.841 37.2945L106.121 37.7088ZM105.876 35.2905L105.546 35.6656L105.549 35.6683L105.876 35.2905ZM102.137 35.2798L102.433 35.6827L102.437 35.6798L102.137 35.2798ZM101.178 36.6222L101.138 37.1205L101.545 37.1536L101.658 36.7612L101.178 36.6222ZM96.9806 36.2812L96.4917 36.1765L96.3724 36.7335L96.9402 36.7796L96.9806 36.2812ZM98.2377 33.7031L98.6163 34.0297L98.6179 34.0279L98.2377 33.7031ZM100.656 32.0199L100.84 32.4848L100.842 32.4841L100.656 32.0199ZM106.718 31.7429L106.594 32.2272L106.595 32.2275L106.718 31.7429ZM108.944 32.7337L108.66 33.1448L108.662 33.1462L108.944 32.7337ZM110.489 34.4595L110.048 34.6955L110.049 34.6974L110.489 34.4595ZM111.054 48V48.5H111.554V48H111.054ZM106.75 48H106.25V48.5H106.75V48ZM106.75 45.7308H107.25V45.2308H106.75V45.7308ZM106.622 45.7308V45.2308H106.317L106.177 45.5023L106.622 45.7308ZM105.567 47.0838L105.896 47.4609L105.899 47.4578L105.567 47.0838ZM103.98 47.9893L104.143 48.4621L104.148 48.4603L103.98 47.9893ZM104.907 44.7827L105.135 45.2274L105.14 45.2249L104.907 44.7827ZM106.111 43.696L105.69 43.4263L105.69 43.4263L106.111 43.696ZM106.547 40.4148H107.047V39.4934L106.275 39.9956L106.547 40.4148ZM105.961 40.6705L106.103 41.1502L106.111 41.1475L105.961 40.6705ZM105.141 40.8729L105.233 41.3646L105.244 41.3623L105.141 40.8729ZM104.225 41.0327L104.294 41.528L104.305 41.5262L104.225 41.0327ZM103.394 41.1499L103.323 40.6549L103.321 40.6552L103.394 41.1499ZM101.998 41.5227L102.195 41.9823L102.195 41.9823L101.998 41.5227ZM101.072 42.2152L101.467 42.5215L101.47 42.5168L101.072 42.2152ZM101.412 44.6974L101.118 45.1013L101.125 45.1065L101.412 44.6974ZM101.839 47.8089C100.853 47.8089 99.9932 47.6381 99.2501 47.3086L98.8447 48.2227C99.7351 48.6176 100.736 48.8089 101.839 48.8089V47.8089ZM99.2534 47.31C98.5186 46.9778 97.9468 46.4949 97.5251 45.8593L96.6918 46.4121C97.2219 47.2111 97.9427 47.8148 98.8414 48.2212L99.2534 47.31ZM97.5283 45.864C97.1236 45.2387 96.9054 44.437 96.9054 43.4297H95.9054C95.9054 44.5814 96.1559 45.5838 96.6887 46.4073L97.5283 45.864ZM96.9054 43.4297C96.9054 42.5798 97.0615 41.9034 97.346 41.3769L96.4662 40.9016C96.083 41.6108 95.9054 42.4614 95.9054 43.4297H96.9054ZM97.346 41.3769C97.6412 40.8304 98.0393 40.396 98.5435 40.0661L97.9959 39.2293C97.3496 39.6523 96.8386 40.2122 96.4662 40.9016L97.346 41.3769ZM98.5435 40.0661C99.0693 39.722 99.6722 39.4586 100.357 39.2791L100.103 38.3118C99.3246 38.5159 98.6207 38.8206 97.9959 39.2293L98.5435 40.0661ZM100.356 39.2794C101.067 39.0947 101.815 38.9641 102.6 38.8883L102.504 37.8929C101.67 37.9734 100.87 38.1127 100.104 38.3115L100.356 39.2794ZM102.604 38.8879C103.559 38.7882 104.334 38.695 104.926 38.6084L104.781 37.6189C104.208 37.7027 103.449 37.7942 102.5 37.8933L102.604 38.8879ZM104.932 38.6075C105.535 38.5119 106.046 38.3632 106.401 38.1231L105.841 37.2945C105.671 37.4095 105.337 37.5307 104.775 37.6198L104.932 38.6075ZM106.401 38.1231C106.817 37.8424 107.015 37.4155 107.015 36.9205H106.015C106.015 37.1214 105.951 37.2201 105.841 37.2945L106.401 38.1231ZM107.015 36.9205V36.8565H106.015V36.9205H107.015ZM107.015 36.8565C107.015 36.0681 106.761 35.3956 106.204 34.9126L105.549 35.6683C105.844 35.924 106.015 36.2956 106.015 36.8565H107.015ZM106.207 34.9154C105.667 34.4392 104.935 34.2365 104.086 34.2365V35.2365C104.786 35.2365 105.248 35.4032 105.546 35.6656L106.207 34.9154ZM104.086 34.2365C103.199 34.2365 102.432 34.4332 101.837 34.8798L102.437 35.6798C102.807 35.402 103.34 35.2365 104.086 35.2365V34.2365ZM101.841 34.877C101.275 35.2927 100.887 35.8302 100.698 36.4831L101.658 36.7612C101.782 36.3345 102.033 35.9772 102.433 35.6827L101.841 34.877ZM101.219 36.1238L97.0211 35.7829L96.9402 36.7796L101.138 37.1205L101.219 36.1238ZM97.4695 36.386C97.6662 35.4684 98.0496 34.6867 98.6163 34.0297L97.8592 33.3765C97.1759 34.1685 96.7213 35.1055 96.4917 36.1765L97.4695 36.386ZM98.6179 34.0279C99.1846 33.3646 99.9207 32.8486 100.84 32.4848L100.472 31.555C99.417 31.9724 98.5409 32.5786 97.8576 33.3783L98.6179 34.0279ZM100.842 32.4841C101.766 32.1146 102.851 31.9233 104.108 31.9233V30.9233C102.751 30.9233 101.535 31.1297 100.47 31.5556L100.842 32.4841ZM104.108 31.9233C104.977 31.9233 105.806 32.0252 106.594 32.2272L106.842 31.2586C105.968 31.0345 105.056 30.9233 104.108 30.9233V31.9233ZM106.595 32.2275C107.381 32.4273 108.067 32.7345 108.66 33.1448L109.229 32.3226C108.529 31.838 107.731 31.4846 106.841 31.2583L106.595 32.2275ZM108.662 33.1462C109.249 33.548 109.71 34.0626 110.048 34.6955L110.93 34.2235C110.516 33.4502 109.947 32.8142 109.227 32.3211L108.662 33.1462ZM110.049 34.6974C110.378 35.3054 110.554 36.0543 110.554 36.9631H111.554C111.554 35.9258 111.353 35.0057 110.929 34.2217L110.049 34.6974ZM110.554 36.9631V48H111.554V36.9631H110.554ZM111.054 47.5H106.75V48.5H111.054V47.5ZM107.25 48V45.7308H106.25V48H107.25ZM106.75 45.2308H106.622V46.2308H106.75V45.2308ZM106.177 45.5023C105.943 45.9573 105.631 46.3592 105.235 46.7098L105.899 47.4578C106.385 47.0271 106.775 46.5271 107.067 45.9594L106.177 45.5023ZM105.239 46.7068C104.851 47.0444 104.378 47.3166 103.812 47.5184L104.148 48.4603C104.817 48.2217 105.403 47.8902 105.896 47.4608L105.239 46.7068ZM103.817 47.5167C103.262 47.7079 102.606 47.8089 101.839 47.8089V48.8089C102.691 48.8089 103.462 48.6969 104.143 48.462L103.817 47.5167ZM103.138 45.6768C103.873 45.6768 104.543 45.5319 105.135 45.2274L104.678 44.338C104.248 44.559 103.739 44.6768 103.138 44.6768V45.6768ZM105.14 45.2249C105.722 44.9176 106.191 44.4982 106.532 43.9657L105.69 43.4263C105.448 43.803 105.114 44.1079 104.673 44.3405L105.14 45.2249ZM106.532 43.9657C106.878 43.4253 107.047 42.8156 107.047 42.1513H106.047C106.047 42.6375 105.926 43.0576 105.69 43.4263L106.532 43.9657ZM107.047 42.1513V40.4148H106.047V42.1513H107.047ZM106.275 39.9956C106.186 40.0536 106.037 40.1225 105.812 40.1935L106.111 41.1475C106.383 41.0622 106.625 40.9606 106.82 40.834L106.275 39.9956ZM105.82 40.1908C105.594 40.2573 105.334 40.3217 105.039 40.3835L105.244 41.3623C105.559 41.2962 105.846 41.2257 106.103 41.1501L105.82 40.1908ZM105.05 40.3813C104.748 40.4374 104.446 40.4901 104.145 40.5392L104.305 41.5262C104.614 41.4759 104.924 41.4219 105.233 41.3644L105.05 40.3813ZM104.156 40.5375C103.85 40.5801 103.573 40.6193 103.323 40.6549L103.465 41.6448C103.713 41.6094 103.989 41.5704 104.294 41.5279L104.156 40.5375ZM103.321 40.6552C102.756 40.7381 102.247 40.8721 101.801 41.0632L102.195 41.9823C102.545 41.8324 102.967 41.7179 103.467 41.6446L103.321 40.6552ZM101.801 41.0632C101.339 41.2615 100.954 41.5413 100.673 41.9136L101.47 42.5168C101.629 42.3067 101.863 42.1249 102.195 41.9823L101.801 41.0632ZM100.676 41.9089C100.376 42.2961 100.241 42.7648 100.241 43.2805H101.241C101.241 42.944 101.327 42.7024 101.467 42.5215L100.676 41.9089ZM100.241 43.2805C100.241 44.0368 100.525 44.6685 101.118 45.1013L101.707 44.2936C101.405 44.0729 101.241 43.7601 101.241 43.2805H100.241ZM101.125 45.1065C101.683 45.4987 102.366 45.6768 103.138 45.6768V44.6768C102.519 44.6768 102.051 44.5354 101.7 44.2884L101.125 45.1065ZM114.204 48H113.704V48.5H114.204V48ZM118.374 48V48.5H118.874V48H118.374ZM118.374 43.83L118.026 43.471L117.874 43.6183V43.83H118.374ZM120.324 41.94V41.44H120.121L119.976 41.581L120.324 41.94ZM123.174 42.54L123.527 42.1864L123.521 42.1799L123.514 42.1736L123.174 42.54ZM124.284 44.37L124.754 44.1991L124.753 44.1963L124.284 44.37ZM125.604 48L125.134 48.1709L125.253 48.5H125.604V48ZM129.954 48V48.5H130.675L130.422 47.8244L129.954 48ZM127.794 42.24L128.262 42.0644L128.259 42.057L128.256 42.0496L127.794 42.24ZM126.234 39.87L126.559 39.4903L126.55 39.483L126.234 39.87ZM123.714 39.03L123.682 39.529L123.691 39.5295L123.699 39.5298L123.714 39.03ZM123.234 39H122.734V39.4697L123.202 39.499L123.234 39ZM123.234 38.85L122.919 38.4616L122.734 38.6117V38.85H123.234ZM126.834 35.55L126.485 35.1913L126.48 35.1964L126.834 35.55ZM129.954 32.52L130.302 32.8787L131.186 32.02H129.954V32.52ZM125.004 32.52V32.02H124.803L124.658 32.1588L125.004 32.52ZM122.184 35.22L121.838 34.8588L121.83 34.8664L122.184 35.22ZM121.764 35.64L121.41 35.2864L121.41 35.2864L121.764 35.64ZM119.874 37.59L119.51 37.2473L119.505 37.2525L119.5 37.2578L119.874 37.59ZM118.434 39.45L118.248 39.9142L118.625 40.0649L118.85 39.7273L118.434 39.45ZM118.284 39.39L117.784 39.3733L117.772 39.724L118.098 39.8542L118.284 39.39ZM118.374 27H118.874V26.5H118.374V27ZM114.204 27V26.5H113.704V27H114.204ZM114.204 48.5H118.374V47.5H114.204V48.5ZM118.874 48V43.83H117.874V48H118.874ZM118.722 44.189L120.672 42.299L119.976 41.581L118.026 43.471L118.722 44.189ZM120.324 42.44H121.464V41.44H120.324V42.44ZM121.464 42.44C122.082 42.44 122.522 42.6176 122.833 42.9064L123.514 42.1736C122.985 41.6824 122.285 41.44 121.464 41.44V42.44ZM122.82 42.8936C123.181 43.2547 123.536 43.7899 123.815 44.5437L124.753 44.1963C124.432 43.3301 124.006 42.6653 123.527 42.1864L122.82 42.8936ZM123.814 44.5409L125.134 48.1709L126.074 47.8291L124.754 44.1991L123.814 44.5409ZM125.604 48.5H129.954V47.5H125.604V48.5ZM130.422 47.8244L128.262 42.0644L127.326 42.4156L129.486 48.1756L130.422 47.8244ZM128.256 42.0496C127.82 40.9911 127.272 40.1015 126.559 39.4904L125.908 40.2496C126.455 40.7185 126.927 41.4489 127.331 42.4304L128.256 42.0496ZM126.55 39.483C125.785 38.8569 124.83 38.5626 123.728 38.5302L123.699 39.5298C124.637 39.5574 125.362 39.8031 125.917 40.257L126.55 39.483ZM123.745 38.531L123.265 38.501L123.202 39.499L123.682 39.529L123.745 38.531ZM123.734 39V38.85H122.734V39H123.734ZM123.549 39.2384C124.677 38.3237 125.89 37.2008 127.187 35.9036L126.48 35.1964C125.197 36.4792 124.011 37.5763 122.919 38.4616L123.549 39.2384ZM127.182 35.9087L130.302 32.8787L129.605 32.1613L126.485 35.1913L127.182 35.9087ZM129.954 32.02H125.004V33.02H129.954V32.02ZM124.658 32.1588L121.838 34.8588L122.529 35.5812L125.349 32.8812L124.658 32.1588ZM121.83 34.8664L121.41 35.2864L122.117 35.9936L122.537 35.5736L121.83 34.8664ZM121.41 35.2864C120.626 36.0711 119.992 36.7349 119.51 37.2473L120.238 37.9327C120.715 37.4251 121.342 36.7689 122.117 35.9936L121.41 35.2864ZM119.5 37.2578C119.007 37.8123 118.512 38.4305 118.018 39.1726L118.85 39.7273C119.315 39.0295 119.78 38.4477 120.247 37.9222L119.5 37.2578ZM118.619 38.9858L118.469 38.9258L118.098 39.8542L118.248 39.9142L118.619 38.9858ZM118.783 39.4067C118.844 37.6012 118.874 35.8256 118.874 34.02H117.874C117.874 35.8143 117.844 37.5788 117.784 39.3733L118.783 39.4067ZM118.874 34.02V27H117.874V34.02H118.874ZM118.374 26.5H114.204V27.5H118.374V26.5ZM113.704 27V48H114.704V27H113.704ZM132.21 40.89L131.906 40.4928L131.904 40.4941L132.21 40.89ZM132.09 47.4L132.39 47L132.39 47L132.09 47.4ZM140.01 47.1L139.689 46.7158L139.683 46.7211L140.01 47.1ZM141.93 43.17V42.67H141.487L141.433 43.1091L141.93 43.17ZM142.08 43.17L142.579 43.1576L142.567 42.67H142.08V43.17ZM142.2 48L141.7 48.0124L141.712 48.5H142.2V48ZM146.28 48V48.5H146.78V48H146.28ZM144.42 33.75L144.759 33.3833L144.755 33.3792L144.42 33.75ZM134.49 32.94L134.713 33.3872L134.718 33.3849L134.49 32.94ZM131.79 35.34L131.362 35.0808L131.359 35.0865L131.79 35.34ZM130.8 38.67L130.3 38.645L130.274 39.17H130.8V38.67ZM135.03 38.67V39.17H135.487L135.528 38.7139L135.03 38.67ZM136.14 36.18L135.795 35.8179L135.794 35.8183L136.14 36.18ZM141.3 35.94L141.642 35.5759L141.631 35.5656L141.62 35.5559L141.3 35.94ZM140.94 39.24L140.738 38.7823L140.73 38.786L140.94 39.24ZM136.92 39.72L136.927 39.22H136.92V39.72ZM135.57 45.21L135.261 45.6032L135.261 45.6032L135.57 45.21ZM135.51 42.54L135.189 42.1559L135.18 42.1634L135.172 42.1714L135.51 42.54ZM137.04 42L137.015 41.5006L137.004 41.5011L136.994 41.5021L137.04 42ZM139.83 41.55L139.678 41.0735L139.668 41.0766L139.659 41.0801L139.83 41.55ZM141.3 40.62L140.903 40.3151L140.898 40.3222L140.893 40.3294L141.3 40.62ZM141.93 39.03V38.53H141.512L141.438 38.9406L141.93 39.03ZM142.08 39.03H142.58V38.53H142.08V39.03ZM139.71 45.09L139.471 44.6504L139.464 44.6541L139.458 44.6581L139.71 45.09ZM131.904 40.4941C130.721 41.4068 130.15 42.6686 130.15 44.19H131.15C131.15 42.9514 131.598 41.9932 132.515 41.2859L131.904 40.4941ZM130.15 44.19C130.15 45.7241 130.679 46.9672 131.79 47.8L132.39 47C131.58 46.3928 131.15 45.4759 131.15 44.19H130.15ZM131.79 47.8C132.86 48.6032 134.266 48.98 135.9 48.98V47.98C134.413 47.98 133.239 47.6368 132.39 47L131.79 47.8ZM135.9 48.98C137.644 48.98 139.148 48.5019 140.336 47.4789L139.683 46.7211C138.711 47.5581 137.455 47.98 135.9 47.98V48.98ZM140.33 47.4841C141.532 46.4824 142.205 45.0318 142.426 43.2309L141.433 43.1091C141.234 44.7282 140.647 45.9176 139.689 46.7159L140.33 47.4841ZM141.93 43.67H142.08V42.67H141.93V43.67ZM141.58 43.1824L141.7 48.0124L142.699 47.9876L142.579 43.1576L141.58 43.1824ZM142.2 48.5H146.28V47.5H142.2V48.5ZM146.78 48V38.1H145.78V48H146.78ZM146.78 38.1C146.78 36.1949 146.094 34.6206 144.759 33.3833L144.08 34.1167C145.205 35.1594 145.78 36.4651 145.78 38.1H146.78ZM144.755 33.3792C143.369 32.125 141.368 31.54 138.81 31.54V32.54C141.231 32.54 142.95 33.095 144.084 34.1208L144.755 33.3792ZM138.81 31.54C137.043 31.54 135.52 31.8497 134.261 32.4951L134.718 33.3849C135.799 32.8303 137.156 32.54 138.81 32.54V31.54ZM134.266 32.4928C132.992 33.1297 132.017 34.0006 131.362 35.0808L132.217 35.5992C132.762 34.6994 133.587 33.9503 134.713 33.3872L134.266 32.4928ZM131.359 35.0865C130.717 36.1771 130.364 37.3657 130.3 38.645L131.299 38.695C131.355 37.5743 131.662 36.5429 132.22 35.5935L131.359 35.0865ZM130.8 39.17H135.03V38.17H130.8V39.17ZM135.528 38.7139C135.609 37.7908 135.929 37.0725 136.485 36.5417L135.794 35.8183C135.03 36.5475 134.63 37.5092 134.531 38.6261L135.528 38.7139ZM136.484 36.5421C137 36.0511 137.765 35.75 138.84 35.75V34.75C137.574 34.75 136.539 35.1089 135.795 35.8179L136.484 36.5421ZM138.84 35.75C139.887 35.75 140.564 35.9778 140.979 36.3241L141.62 35.5559C140.955 35.0022 140.012 34.75 138.84 34.75V35.75ZM140.957 36.3041C141.391 36.713 141.58 37.1286 141.58 37.56H142.58C142.58 36.7914 142.228 36.127 141.642 35.5759L140.957 36.3041ZM141.58 37.56C141.58 37.8635 141.505 38.1 141.377 38.2876C141.249 38.4769 141.045 38.6475 140.738 38.7823L141.141 39.6977C141.584 39.5025 141.951 39.2231 142.204 38.8499C142.459 38.475 142.58 38.0365 142.58 37.56H141.58ZM140.73 38.786C140.063 39.0938 138.847 39.2501 136.927 39.2201L136.912 40.2199C138.832 40.2499 140.256 40.1062 141.149 39.694L140.73 38.786ZM136.92 39.22C134.776 39.22 133.054 39.6148 131.906 40.4928L132.513 41.2872C133.405 40.6052 134.863 40.22 136.92 40.22V39.22ZM135.878 44.8168C135.606 44.6031 135.47 44.3151 135.47 43.83H134.47C134.47 44.5449 134.693 45.1569 135.261 45.6032L135.878 44.8168ZM135.47 43.83C135.47 43.4184 135.599 43.1362 135.847 42.9086L135.172 42.1714C134.7 42.6038 134.47 43.1616 134.47 43.83H135.47ZM135.83 42.9241C136.086 42.7109 136.486 42.5524 137.085 42.4979L136.994 41.5021C136.274 41.5676 135.654 41.7691 135.189 42.1559L135.83 42.9241ZM137.065 42.4994C138.284 42.4384 139.272 42.2848 140 42.0199L139.659 41.0801C139.067 41.2952 138.195 41.4416 137.015 41.5006L137.065 42.4994ZM139.981 42.0265C140.69 41.8011 141.317 41.4558 141.706 40.9106L140.893 40.3294C140.682 40.6242 140.29 40.8789 139.678 41.0735L139.981 42.0265ZM141.696 40.9249C142.061 40.4508 142.293 39.8269 142.421 39.1194L141.438 38.9406C141.326 39.5531 141.139 40.0092 140.903 40.3151L141.696 40.9249ZM141.93 39.53H142.08V38.53H141.93V39.53ZM141.58 39.03V41.4H142.58V39.03H141.58ZM141.58 41.4C141.58 42.036 141.378 42.6342 140.998 43.2316L141.841 43.7684C142.301 43.0458 142.58 42.264 142.58 41.4H141.58ZM140.998 43.2316C140.623 43.8205 140.116 44.3012 139.471 44.6504L139.948 45.5296C140.743 45.0988 141.376 44.4995 141.841 43.7684L140.998 43.2316ZM139.458 44.6581C138.825 45.0271 138.135 45.19 137.37 45.19V46.19C138.284 46.19 139.154 45.9929 139.961 45.5219L139.458 44.6581ZM137.37 45.19C136.642 45.19 136.173 45.0481 135.878 44.8168L135.261 45.6032C135.806 46.0319 136.537 46.19 137.37 46.19V45.19ZM162.145 32.76L161.903 33.1978L161.903 33.1978L162.145 32.76ZM155.545 33.45L155.219 33.0711L155.213 33.0763L155.545 33.45ZM153.625 37.23V37.73H154.062L154.12 37.2967L153.625 37.23ZM153.445 37.23L152.945 37.2459L152.961 37.73H153.445V37.23ZM153.295 32.52L153.795 32.5041L153.779 32.02H153.295V32.52ZM149.155 32.52V32.02H148.655V32.52H149.155ZM149.155 48H148.655V48.5H149.155V48ZM153.445 48V48.5H153.945V48H153.445ZM154.435 36.6L154.053 36.277L154.053 36.277L154.435 36.6ZM159.805 36.42L160.182 36.0919L160.175 36.0832L160.167 36.0748L159.805 36.42ZM160.735 48H160.235V48.5H160.735V48ZM165.025 48V48.5H165.525V48H165.025ZM164.245 34.8L164.68 34.5534L164.674 34.5428L164.245 34.8ZM162.386 32.3222C161.439 31.7997 160.396 31.54 159.295 31.54V32.54C160.234 32.54 161.11 32.7603 161.903 33.1978L162.386 32.3222ZM159.295 31.54C157.73 31.54 156.385 32.0664 155.219 33.0711L155.871 33.8289C156.864 32.9736 157.98 32.54 159.295 32.54V31.54ZM155.213 33.0763C154.033 34.1252 153.353 35.4996 153.129 37.1633L154.12 37.2967C154.316 35.8404 154.897 34.6948 155.877 33.8237L155.213 33.0763ZM153.625 36.73H153.445V37.73H153.625V36.73ZM153.945 37.2141L153.795 32.5041L152.795 32.5359L152.945 37.2459L153.945 37.2141ZM153.295 32.02H149.155V33.02H153.295V32.02ZM148.655 32.52V48H149.655V32.52H148.655ZM149.155 48.5H153.445V47.5H149.155V48.5ZM153.945 48V39.9H152.945V48H153.945ZM153.945 39.9C153.945 38.562 154.258 37.5827 154.817 36.923L154.053 36.277C153.291 37.1773 152.945 38.418 152.945 39.9H153.945ZM154.817 36.923C155.371 36.2681 156.154 35.9 157.225 35.9V34.9C155.896 34.9 154.819 35.3719 154.053 36.277L154.817 36.923ZM157.225 35.9C158.186 35.9 158.919 36.2162 159.443 36.7652L160.167 36.0748C159.431 35.3038 158.424 34.9 157.225 34.9V35.9ZM159.428 36.7481C159.93 37.3264 160.235 38.16 160.235 39.3H161.235C161.235 37.98 160.879 36.8936 160.182 36.0919L159.428 36.7481ZM160.235 39.3V48H161.235V39.3H160.235ZM160.735 48.5H165.025V47.5H160.735V48.5ZM165.525 48V38.01H164.525V48H165.525ZM165.525 38.01C165.525 36.7062 165.238 35.5389 164.68 34.5535L163.81 35.0465C164.271 35.8611 164.525 36.8538 164.525 38.01H165.525ZM164.674 34.5428C164.089 33.5681 163.335 32.8454 162.386 32.3222L161.903 33.1978C162.695 33.6346 163.321 34.2319 163.816 35.0572L164.674 34.5428ZM177.397 35.16V35.66H177.897V35.16H177.397ZM177.397 32.52H177.897V32.02H177.397V32.52ZM172.927 32.52L172.427 32.5348L172.441 33.02H172.927V32.52ZM172.807 28.47L173.307 28.4552L173.292 27.97H172.807V28.47ZM168.757 28.47V27.97H168.257V28.47H168.757ZM168.757 32.52V33.02H169.257V32.52H168.757ZM166.327 32.52V32.02H165.827V32.52H166.327ZM166.327 35.16H165.827V35.66H166.327V35.16ZM168.757 35.16H169.257V34.66H168.757V35.16ZM170.017 47.22L170.326 46.8268L170.017 47.22ZM174.097 48.18L174.125 47.6808L174.111 47.68H174.097V48.18ZM177.367 48.03L177.404 48.5286L177.867 48.4943V48.03H177.367ZM177.367 44.76H177.867V44.2184L177.327 44.2616L177.367 44.76ZM173.467 44.49L173.154 44.8804L173.154 44.8804L173.467 44.49ZM173.017 35.16V34.66H172.517V35.16H173.017ZM177.897 35.16V32.52H176.897V35.16H177.897ZM177.397 32.02H172.927V33.02H177.397V32.02ZM173.427 32.5052L173.307 28.4552L172.307 28.4848L172.427 32.5348L173.427 32.5052ZM172.807 27.97H168.757V28.97H172.807V27.97ZM168.257 28.47V32.52H169.257V28.47H168.257ZM168.757 32.02H166.327V33.02H168.757V32.02ZM165.827 32.52V35.16H166.827V32.52H165.827ZM166.327 35.66H168.757V34.66H166.327V35.66ZM168.257 35.16V43.68H169.257V35.16H168.257ZM168.257 43.68C168.257 45.453 168.691 46.8139 169.708 47.6132L170.326 46.8268C169.663 46.3061 169.257 45.327 169.257 43.68H168.257ZM169.708 47.6132C170.685 48.3811 172.18 48.68 174.097 48.68V47.68C172.234 47.68 171.028 47.3789 170.326 46.8268L169.708 47.6132ZM174.069 48.6792C174.649 48.7114 175.796 48.6477 177.404 48.5286L177.33 47.5314C175.698 47.6523 174.625 47.7086 174.125 47.6808L174.069 48.6792ZM177.867 48.03V44.76H176.867V48.03H177.867ZM177.327 44.2616C176.588 44.3207 175.912 44.35 175.267 44.35V45.35C175.942 45.35 176.646 45.3193 177.407 45.2584L177.327 44.2616ZM175.267 44.35C174.836 44.35 174.496 44.321 174.24 44.2697C173.977 44.2171 173.84 44.1485 173.779 44.0996L173.154 44.8804C173.393 45.0715 173.707 45.1829 174.044 45.2503C174.387 45.319 174.798 45.35 175.267 45.35V44.35ZM173.779 44.0996C173.735 44.0639 173.666 43.9798 173.609 43.7864C173.552 43.5932 173.517 43.3223 173.517 42.96H172.517C172.517 43.3777 172.556 43.7518 172.65 44.0686C172.743 44.3852 172.899 44.6761 173.154 44.8804L173.779 44.0996ZM173.517 42.96V35.16H172.517V42.96H173.517ZM173.017 35.66H177.397V34.66H173.017V35.66Z" fill="#496D78"/>
</svg>
