<svg width="154" height="50" viewBox="0 0 154 50" fill="none" xmlns="http://www.w3.org/2000/svg">
<path d="M3.51562 35L0.336914 9.2041H5.24414L7.13379 26.7529L8.81836 9.2041H13.7256L10.5469 35H3.51562ZM15.9 35V9.21875H20.8805V35H15.9ZM26.2043 35L23.0256 9.2041H27.9328L29.8225 26.7529L31.507 9.2041H36.4143L33.2355 35H26.2043ZM38.823 35V9.21875H49.1355V14.1992H44.0672V19.2236H48.9305V24.0723H44.0672V29.9756H49.4725V35H38.823ZM52.0863 35V9.21875H57.184V19.5459L59.5863 9.21875H64.7719L61.8861 21.0254L65.3725 35H60.0258L57.2133 22.5195V35H52.0863Z" fill="#F94D1F"/>
<path d="M75.0664 34H74.0664V35H75.0664V34ZM75.0664 9.9375V8.9375H74.0664V9.9375H75.0664ZM79.8242 9.9375H80.8242V8.9375H79.8242V9.9375ZM79.8242 19.5762H78.8242L80.7982 19.8027L79.8242 19.5762ZM82.0664 9.9375V8.9375H81.2723L81.0924 9.71093L82.0664 9.9375ZM86.9062 9.9375L87.8777 10.1749L88.1801 8.9375H86.9062V9.9375ZM84.2129 20.957L83.2415 20.7196L83.1829 20.9595L83.2426 21.1991L84.2129 20.957ZM87.4668 34V35H88.7469L88.4371 33.7579L87.4668 34ZM82.4766 34L81.501 34.2198L81.6768 35H82.4766V34ZM79.8516 22.3516L80.8271 22.1317L78.8516 22.3516H79.8516ZM79.8516 34V35H80.8516V34H79.8516ZM76.0664 34V9.9375H74.0664V34H76.0664ZM75.0664 10.9375H79.8242V8.9375H75.0664V10.9375ZM78.8242 9.9375V19.5762H80.8242V9.9375H78.8242ZM80.7982 19.8027L83.0404 10.1641L81.0924 9.71093L78.8502 19.3496L80.7982 19.8027ZM82.0664 10.9375H86.9062V8.9375H82.0664V10.9375ZM85.9348 9.70007L83.2415 20.7196L85.1843 21.1945L87.8777 10.1749L85.9348 9.70007ZM83.2426 21.1991L86.4965 34.2421L88.4371 33.7579L85.1832 20.715L83.2426 21.1991ZM87.4668 33H82.4766V35H87.4668V33ZM83.4521 33.7802L80.8271 22.1317L78.876 22.5714L81.501 34.2198L83.4521 33.7802ZM78.8516 22.3516V34H80.8516V22.3516H78.8516ZM79.8516 33H75.0664V35H79.8516V33ZM90.5555 32.5371L89.7893 33.1797L89.7919 33.1828L90.5555 32.5371ZM89.1337 9.9375V8.9375H88.1337V9.9375H89.1337ZM93.8095 9.9375H94.8095V8.9375H93.8095V9.9375ZM93.8778 28.5312L92.8852 28.6523L92.8855 28.6553L93.8778 28.5312ZM95.7919 29.4473L96.6034 30.0316L96.6088 30.0241L96.6141 30.0165L95.7919 29.4473ZM96.0927 28.5312L95.1 28.4102L95.0986 28.4222L95.0974 28.4342L96.0927 28.5312ZM96.161 9.9375V8.9375H95.161V9.9375H96.161ZM100.837 9.9375H101.837V8.9375H100.837V9.9375ZM99.4149 32.5371L100.179 33.1828L100.181 33.1797L99.4149 32.5371ZM94.9852 33.2188C93.161 33.2188 92.0144 32.7137 91.3192 31.8914L89.7919 33.1828C90.9925 34.6027 92.7991 35.2188 94.9852 35.2188V33.2188ZM91.3217 31.8945C90.583 31.0137 90.1337 29.6229 90.1337 27.5605H88.1337C88.1337 29.8732 88.6323 31.8002 89.7894 33.1797L91.3217 31.8945ZM90.1337 27.5605V9.9375H88.1337V27.5605H90.1337ZM89.1337 10.9375H93.8095V8.9375H89.1337V10.9375ZM92.8095 9.9375V27.3691H94.8095V9.9375H92.8095ZM92.8095 27.3691C92.8095 27.808 92.8344 28.2359 92.8852 28.6523L94.8705 28.4102C94.8301 28.0792 94.8095 27.7323 94.8095 27.3691H92.8095ZM92.8855 28.6553C92.9458 29.137 93.0925 29.6019 93.3701 30.0028L95.0145 28.8644C94.9639 28.7913 94.901 28.6547 94.8701 28.4072L92.8855 28.6553ZM93.3701 30.0028C93.7703 30.5809 94.39 30.7891 94.9852 30.7891V28.7891C94.9086 28.7891 94.8974 28.7764 94.9226 28.7877C94.9358 28.7936 94.9538 28.8038 94.9727 28.8195C94.9916 28.8353 95.0055 28.8515 95.0145 28.8644L93.3701 30.0028ZM94.9852 30.7891C95.5642 30.7891 96.1924 30.6024 96.6034 30.0316L94.9803 28.863C94.9927 28.8458 95.0094 28.8278 95.0295 28.8119C95.0495 28.7962 95.0668 28.7872 95.077 28.7829C95.0953 28.7751 95.074 28.7891 94.9852 28.7891V30.7891ZM96.6141 30.0165C96.9001 29.6033 97.0398 29.1217 97.0879 28.6283L95.0974 28.4342C95.0726 28.6882 95.0118 28.8172 94.9697 28.8781L96.6141 30.0165ZM97.0853 28.6523C97.1361 28.2359 97.161 27.808 97.161 27.3691H95.161C95.161 27.7323 95.1404 28.0792 95.1 28.4102L97.0853 28.6523ZM97.161 27.3691V9.9375H95.161V27.3691H97.161ZM96.161 10.9375H100.837V8.9375H96.161V10.9375ZM99.8368 9.9375V27.5605H101.837V9.9375H99.8368ZM99.8368 27.5605C99.8368 29.6229 99.3875 31.0137 98.6487 31.8945L100.181 33.1797C101.338 31.8002 101.837 29.8732 101.837 27.5605H99.8368ZM98.6513 31.8914C97.9561 32.7137 96.8095 33.2188 94.9852 33.2188V35.2188C97.1714 35.2188 98.9779 34.6027 100.179 33.1828L98.6513 31.8914ZM104.083 34H103.083V35H104.083V34ZM104.083 9.9375V8.9375H103.083V9.9375H104.083ZM111.411 9.9375L112.401 9.80086L112.282 8.9375H111.411V9.9375ZM113.434 24.6074L112.443 24.7441L114.425 24.7432L113.434 24.6074ZM115.444 9.9375V8.9375H114.571L114.453 9.80177L115.444 9.9375ZM122.84 9.9375H123.84V8.9375H122.84V9.9375ZM122.84 34V35H123.84V34H122.84ZM118.438 34H117.438V35H118.438V34ZM118.438 16.6641H119.438L117.45 16.5067L118.438 16.6641ZM115.676 34V35H116.53L116.664 34.1573L115.676 34ZM111.356 34L110.37 34.1664L110.511 35H111.356V34ZM108.43 16.6641L109.416 16.4976L107.43 16.6641H108.43ZM108.43 34V35H109.43V34H108.43ZM105.083 34V9.9375H103.083V34H105.083ZM104.083 10.9375H111.411V8.9375H104.083V10.9375ZM110.42 10.0741L112.443 24.7441L114.425 24.4708L112.401 9.80086L110.42 10.0741ZM114.425 24.7432L116.435 10.0732L114.453 9.80177L112.443 24.4717L114.425 24.7432ZM115.444 10.9375H122.84V8.9375H115.444V10.9375ZM121.84 9.9375V34H123.84V9.9375H121.84ZM122.84 33H118.438V35H122.84V33ZM119.438 34V16.6641H117.438V34H119.438ZM117.45 16.5067L114.689 33.8427L116.664 34.1573L119.426 16.8214L117.45 16.5067ZM115.676 33H111.356V35H115.676V33ZM112.342 33.8336L109.416 16.4976L107.444 16.8305L110.37 34.1664L112.342 33.8336ZM107.43 16.6641V34H109.43V16.6641H107.43ZM108.43 33H104.083V35H108.43V33ZM125.437 34L124.442 33.9039L124.336 35H125.437V34ZM127.761 9.9375V8.9375H126.853L126.766 9.84136L127.761 9.9375ZM135.923 9.9375L136.919 9.84304L136.833 8.9375H135.923V9.9375ZM138.206 34V35H139.306L139.202 33.9055L138.206 34ZM133.654 34L132.658 34.0877L132.738 35H133.654V34ZM133.312 30.1172L134.308 30.0295L134.228 29.1172H133.312V30.1172ZM130.413 30.1172V29.1172H129.488L129.416 30.04L130.413 30.1172ZM130.113 34V35H131.038L131.11 34.0772L130.113 34ZM130.755 26.2754L129.758 26.2007L129.678 27.2754H130.755V26.2754ZM132.943 26.2754V27.2754H134.032L133.939 26.1897L132.943 26.2754ZM131.89 14.0391L132.886 13.9533L132.808 13.0391H131.89V14.0391ZM131.671 14.0391V13.0391H130.743L130.674 13.9644L131.671 14.0391ZM126.432 34.0961L128.756 10.0336L126.766 9.84136L124.442 33.9039L126.432 34.0961ZM127.761 10.9375H135.923V8.9375H127.761V10.9375ZM134.928 10.032L137.211 34.0945L139.202 33.9055L136.919 9.84304L134.928 10.032ZM138.206 33H133.654V35H138.206V33ZM134.65 33.9123L134.308 30.0295L132.316 30.2049L132.658 34.0877L134.65 33.9123ZM133.312 29.1172H130.413V31.1172H133.312V29.1172ZM129.416 30.04L129.116 33.9228L131.11 34.0772L131.41 30.1944L129.416 30.04ZM130.113 33H125.437V35H130.113V33ZM130.755 27.2754H132.943V25.2754H130.755V27.2754ZM133.939 26.1897L132.886 13.9533L130.894 14.1248L131.946 26.3611L133.939 26.1897ZM131.89 13.0391H131.671V15.0391H131.89V13.0391ZM130.674 13.9644L129.758 26.2007L131.752 26.35L132.668 14.1137L130.674 13.9644ZM140.803 34H139.803V35H140.803V34ZM140.803 9.9375V8.9375H139.803V9.9375H140.803ZM150.975 10.7852L150.306 11.529L150.313 11.5344L150.975 10.7852ZM152.233 13.1367L151.253 13.3396L151.256 13.3499L152.233 13.1367ZM152.055 19.8223L151.136 19.427L151.132 19.4361L152.055 19.8223ZM150.182 21.4492L149.871 20.4987L146.282 21.6713L149.981 22.4289L150.182 21.4492ZM151.768 22.584L150.873 23.0312L150.877 23.0394L150.882 23.0475L151.768 22.584ZM152.233 34V35H153.233V34H152.233ZM147.489 34H146.489V35H147.489V34ZM147.051 23.2812L146.528 24.1339L146.544 24.1436L146.561 24.1528L147.051 23.2812ZM145.67 23.0215V22.0215H144.67V23.0215H145.67ZM145.67 34V35H146.67V34H145.67ZM145.698 18.8516H144.698V19.8516H145.698V18.8516ZM147.639 14.832L148.533 14.3848L147.639 14.832ZM145.698 14.3945V13.3945H144.698V14.3945H145.698ZM141.803 34V9.9375H139.803V34H141.803ZM140.803 10.9375H148.186V8.9375H140.803V10.9375ZM148.186 10.9375C149.28 10.9375 149.929 11.1902 150.306 11.529L151.643 10.0413C150.762 9.2499 149.552 8.9375 148.186 8.9375V10.9375ZM150.313 11.5344C150.745 11.9169 151.077 12.4896 151.253 13.3396L153.212 12.9338C152.969 11.7604 152.462 10.7654 151.637 10.036L150.313 11.5344ZM151.256 13.3499C151.455 14.2642 151.561 15.3698 151.561 16.6777H153.561C153.561 15.2695 153.448 14.0145 153.21 12.9236L151.256 13.3499ZM151.561 16.6777C151.561 17.92 151.399 18.8168 151.136 19.4271L152.974 20.2175C153.385 19.26 153.561 18.0604 153.561 16.6777H151.561ZM151.132 19.4361C150.933 19.9128 150.559 20.2741 149.871 20.4987L150.492 22.3998C151.646 22.0228 152.521 21.2995 152.977 20.2084L151.132 19.4361ZM149.981 22.4289C150.487 22.5325 150.731 22.7471 150.873 23.0312L152.662 22.1368C152.203 21.2177 151.389 20.6758 150.383 20.4696L149.981 22.4289ZM150.882 23.0475C151.092 23.4497 151.233 24.0448 151.233 24.8945H153.233C153.233 23.8485 153.063 22.9031 152.654 22.1205L150.882 23.0475ZM151.233 24.8945V34H153.233V24.8945H151.233ZM152.233 33H147.489V35H152.233V33ZM148.489 34V24.5801H146.489V34H148.489ZM148.489 24.5801C148.489 24.1724 148.448 23.7688 148.327 23.4098C148.204 23.0453 147.971 22.6512 147.541 22.4097L146.561 24.1528C146.423 24.0754 146.408 23.9798 146.431 24.0482C146.456 24.1222 146.489 24.286 146.489 24.5801H148.489ZM147.574 22.4286C147.045 22.1049 146.35 22.0215 145.67 22.0215V24.0215C145.948 24.0215 146.157 24.0406 146.309 24.0692C146.384 24.0832 146.438 24.0984 146.476 24.1116C146.513 24.1247 146.529 24.1339 146.528 24.1339L147.574 22.4286ZM144.67 23.0215V34H146.67V23.0215H144.67ZM145.67 33H140.803V35H145.67V33ZM145.698 19.8516H146.86V17.8516H145.698V19.8516ZM146.86 19.8516C147.219 19.8516 147.574 19.7495 147.884 19.5249C148.182 19.3081 148.383 19.018 148.517 18.7254C148.774 18.165 148.858 17.4475 148.858 16.6777H146.858C146.858 17.3572 146.775 17.7266 146.699 17.8909C146.667 17.9605 146.66 17.9422 146.709 17.9065C146.769 17.8631 146.833 17.8516 146.86 17.8516V19.8516ZM148.858 16.6777C148.858 16.1868 148.839 15.7556 148.796 15.3945C148.756 15.0562 148.686 14.6893 148.533 14.3848L146.744 15.2792C146.738 15.2664 146.777 15.353 146.81 15.6299C146.84 15.8841 146.858 16.2299 146.858 16.6777H148.858ZM148.533 14.3848C148.176 13.6698 147.494 13.3945 146.819 13.3945V15.3945C146.902 15.3945 146.898 15.41 146.854 15.3863C146.831 15.3741 146.806 15.356 146.784 15.3325C146.762 15.3095 146.749 15.2893 146.744 15.2792L148.533 14.3848ZM146.819 13.3945H145.698V15.3945H146.819V13.3945ZM144.698 14.3945V18.8516H146.698V14.3945H144.698Z" fill="#F94D1F"/>
</svg>
